<?xml version="1.0" encoding="utf-8"?>
<!-- Generator: Adobe Illustrator 17.1.0, SVG Export Plug-In . SVG Version: 6.00 Build 0)  -->
<!DOCTYPE svg PUBLIC "-//W3C//DTD SVG 1.1//EN" "http://www.w3.org/Graphics/SVG/1.1/DTD/svg11.dtd">
<svg version="1.1" id="Слой_1" xmlns="http://www.w3.org/2000/svg" xmlns:xlink="http://www.w3.org/1999/xlink" x="0px" y="0px"
	 viewBox="0 0 1183 542" enable-background="new 0 0 1183 542" xml:space="preserve">
<g>
	<path fill="#FDCC7E" d="M1044.6,44.9c-1.5,10.2-4.9,20-8.1,29.7c-0.2,0.6-1.2,0.5-1.2-0.2c0-11-0.4-22.1-0.5-33.1
		c-6-1.9-13-3.9-21.2-5.8c-1.6,6.2-3,12.5-6,18.2c-0.2,0.4-1,0.4-1.1-0.1c-1-6.5,0.2-13,1-19.4c-0.4-0.1-0.7-0.2-1.1-0.2
		c-8.3-1.8-18.7-3.7-30.5-5.6c-3.4,17.2-10.4,33.7-13.8,50.9c-0.1,0.7-1.2,0.5-1.2-0.2c-0.4-17.7,0.4-35.5-0.3-53.2
		c-43.3-6.7-101.2-13.7-156.2-18.7c-0.7,3.3-1.5,6.6-2.5,9.8c-0.2,0.6-1,0.5-1.1,0c-1.2-3.3-1.4-6.8-1.6-10.3
		C785,5.5,771,4.4,757.5,3.5c-1.4,8.8-2.7,17.6-3.7,26.5c-0.1,0.6-1,0.8-1.2,0.2c-2.5-8.9-3.3-18.1-4.3-27.3
		c-32.1-2-60.6-2.9-81.3-1.9c0,0-50.7,1.7-121.5,5.6c-0.8,4-1.6,8-3.3,11.7c-0.2,0.5-0.9,0.3-1.1-0.1c-1.3-3.1-2.9-7.3-3.2-11.2
		C498.4,9.2,453,12,407,15.7c-1.4,11.5-3,23-7,33.9c-0.2,0.5-1,0.6-1.1,0c-3.3-10.6-3.2-21.9-4.2-32.9
		c-42.5,3.5-85.3,7.6-124.4,12.4c-0.6,3.4-1.3,6.7-2.2,10.1c-0.1,0.5-1,0.6-1.1,0c-0.5-3.1-0.6-6.3-0.9-9.5
		c-19.2,2.4-37.5,5-54.4,7.7c-2.3,22.6-2.7,45.4-2.7,68.1c0,0.7-1,0.8-1.2,0.2c-4.1-22-3.1-44.5-6-66.6
		c-18.3,3.2-34.7,6.6-48.6,10.2c-0.9,7.9-1,15.9-1.3,23.8c0,0.7-1,0.8-1.2,0.2c-1.7-7.3-2.7-14.8-4.3-22.1
		c-21.2,6.1-35.2,12.9-39.1,20.3l0.1,0.6c0.3,1.2,69.8,394.7,69.8,394.7s0.1,0.1,0.2,0.2c1.1-5.9,2.5-11.7,6.8-16.8
		c1.8-2.1,5.2-5.2,11.1-8.8c-0.2-4.5,0.3-9.1,1-13.6c0.1-0.6,1-0.5,1.1,0c1.2,3.5,2.4,7,3.1,10.6c4.1-2.2,9-4.5,15-6.8
		c0.9-5.9,1.6-11.8,2.2-17.7c0.1-0.6,1.1-0.9,1.2-0.2c0.9,5.2,2.3,10.2,3.7,15.2c16.6-6,39.8-12.3,71.8-17.8
		c2-6.1,3.1-12.5,3.9-18.9c0.1-0.7,1-0.5,1.1,0c2.1,5.4,4.2,11.3,5,17.2c9.7-1.5,20.2-3,31.4-4.4c1.4-2.4,1.7-5.4,2.2-8.1
		c0.1-0.6,1-0.5,1.2,0c0.6,2.5,1.2,5,2,7.4c28.4-3.3,61.8-6.1,100.9-7.9c2.6-6.3,3-13.4,4.8-20c0.2-0.7,1.1-0.5,1.2,0.2
		c0.7,6.5,1.7,13,2.7,19.4c22.8-0.9,47.4-1.6,74.1-1.8c0.9-2.5,1-5.4,1.6-7.8c0.1-0.5,1-0.6,1.1,0c0.5,2.6,1.2,5.2,2,7.8
		c29-0.2,60.4,0,94.3,0.8c1.2-4.7,2.1-9.4,2.5-14.2c0.1-0.6,1-0.8,1.2-0.2c1.3,4.8,1.8,9.6,2.2,14.5c21.4,0.5,43.8,1.2,67.2,2.2
		c0,0,39.3,2.8,88.9,8.2c2.1-5.1,3-10.6,3.9-16c0.1-0.7,1.1-0.4,1.2,0.2c0.6,5.5,1.3,11,1.7,16.5c23.4,2.6,48.6,5.7,72.9,9.3
		c3.2-9.2,4.2-19.1,6.4-28.6c0.1-0.6,1-0.6,1.1,0c1.9,10,3.2,20.2,3.6,30.3c12.7,2,25,4.2,36.5,6.4c0.6-2.9,1.3-5.7,2.2-8.5
		c0.2-0.6,1-0.6,1.1,0c0.9,3.1,1.4,6.3,1.8,9.5c27.2,5.6,49.1,12,59.6,19.2l86.9-302.7l3.1-73C1068.1,68.2,1075.2,57.1,1044.6,44.9z
		"/>
	<path fill="#FDCC7E" d="M107.3,72l-0.1-0.6C107.2,71.3,107.2,71.6,107.3,72z"/>
	<path fill="#A07032" d="M184.3,106.8c-0.2-0.7-0.4-1.4-0.6-2.1c-9.6-16.2-44.8-16.4-59.1-21.3c-15.9-5.4-17.5-12-17.5-12l8.8,51.2
		c0,0,16.3,18.1,33.9,16.6C167.9,137.5,187.2,116.3,184.3,106.8z"/>
	<path opacity="0.3" fill="#825C28" d="M184.3,106.8c-0.2-0.7-0.4-1.4-0.6-2.1c-3.8-6.3-11.4-10.2-20.3-12.9
		c0.6,9.5,0.9,18.9,1.2,28.4C177.1,117.9,186.5,113.9,184.3,106.8z"/>
	<path fill="#E7B372" d="M183.8,104.7c0.2,0.7,0.3,1.4,0.6,2.1c3.4,11.3-21.6,14.7-42.3,15.7c-0.4,3.6-0.8,7.2-1.4,10.8
		c-0.1,0.6-1,0.5-1.1,0c-1-3.5-1.2-7.1-1.9-10.6c-12,0.4-21.5,0-21.5,0v0c-7.1,0.5-14.1,1.2-20.9,2.2c-0.3,2-0.6,3.9-0.7,5.9
		c-0.1,0.7-1,0.8-1.2,0.2c-0.4-1.4-0.8-2.7-1.2-4.1c-0.1-0.2-0.2-0.8-0.3-1.4c-33.6,5.4-62,16.7-77,26.7c0.4,4.2,1.1,8.3,1.6,12.5
		c0.1,0.6-0.9,0.8-1.1,0.3c-1.5-3.3-3.2-6.4-5.1-9.5c-0.4,0.3-0.8,0.6-1.1,0.9c-15,12.9-5.2,28.5-5.2,28.5s0,0,0,0
		c3.4,3.2,21.9,35.8,42.1,33.1c29.9-3.9,68.4-49.9,68.4-67.7c0,0,16.3,93.5,4.3,353.1c0,0,7.3,0.5,17.2-0.8
		c0.4-7.1,0.3-14.2,2.4-21.1c0.2-0.6,1-0.6,1.1,0c1.6,5.5,2.2,11.2,3.4,16.8c0.2,1,0.5,2,0.8,3c5.8-1.2,12-3.1,17.8-6
		c1.6-0.8,3.1-1.7,4.5-2.6c0.4-4.3,0.8-8.5,1.3-12.8c0.1-0.6,1-0.9,1.2-0.2c0.6,3.1,1.4,6.3,2.1,9.4c10.9-9.8,11.9-22.2,11.9-22.2
		l3.9-355.8C185.7,108.6,184.9,106.5,183.8,104.7z"/>
	<path fill="#A07032" d="M112.9,167.2c0,0,3.1-10.3,1.4-15.9c-1.7-5.6-6.4-10.3-31.8-7c-25.4,3.3-44,14.9-44,14.9l14.4,40.9
		C52.7,200.2,103,193.9,112.9,167.2z"/>
	<path opacity="0.3" fill="#825C28" d="M114.2,151.3c-1.6-5-5.4-9.2-24-7.8c2.7,13.9,4.6,28,6.2,42.1c7.4-4.6,13.6-10.7,16.5-18.4
		C112.9,167.2,116,156.9,114.2,151.3z"/>
	<path fill="#FDCF89" d="M114.2,150.1c0,8.9-12,17.8-27.8,25c-0.1,3.5-0.3,7-0.3,10.6c0,0.7-0.9,0.8-1.2,0.2c-1.1-2.9-2-5.9-3.4-8.6
		c-14.9,6.2-32.2,10.8-45.6,12.5c0,0-0.1,0-0.1,0c1.5,8,1.9,16.1,2.9,24.2c0.1,0.6-0.8,0.8-1.1,0.3c-4.4-7.6-6.7-16.1-10.8-23.8
		c-13.7,0.4-20.1-3.1-22.9-5.8c0.5,0.9,24.4,42.2,36.2,118.4c11.1,71.7,10.1,203.3,9.9,221.3c0,0.1,0.1,0.2,0.1,0.3
		c0.3,0.8,0.7,1.5,1.2,2.2c0.5,0.7,1.1,1.4,1.7,2.1c5.9,4.7,12.6,7.3,19.3,8.6c0.9-5.9,0.2-12.4,1-18.1c0.1-0.6,1-0.5,1.1,0
		c1.4,6.2,2,12.5,2.9,18.7c5.6,0.5,11.2,0.2,16.3-0.6c0.4-3,0.5-6.1,0.9-9.1c0.1-0.6,1-0.5,1.2,0c0.8,2.8,1.6,5.6,2.3,8.4
		c3.2-0.6,6.2-1.4,8.8-2.2c0.5-5.8-0.5-11.8,0.3-17.6c0.1-0.6,1-0.5,1.1,0c1.8,5.1,3.2,10.4,4,15.8c0.1-0.1,0.3-0.1,0.4-0.2
		c2.3-2,4.2-4.5,5.3-7.5l0.7-22.1C130.5,243.6,114.2,150.1,114.2,150.1z"/>
	<g>
		<path fill="#E7B372" d="M1099.1,105c-1.3-1.4-2.2-2.7-2.8-3.7c-0.4,1.2-0.3,1.9-0.3,1.9l-1.6,30.3c0,0,24.3,1.7,47.3-0.8l3.9-23
			C1145.7,109.6,1110.2,117.4,1099.1,105z"/>
		<path fill="#A07032" d="M1172.7,92.8c-3.5,9.1-7.6,18.1-12.1,26.8c-0.3,0.6-1.2,0.2-1.1-0.5c1.7-9.9,3.5-19.8,4.8-29.8
			c-5.7-1.7-13.2-2.8-22.8-3c-5.4-0.1-10.1,0.1-14.3,0.4c-1.6,4.7-3.2,9.5-5.4,14c-0.3,0.6-1.1,0.3-1.1-0.3c-0.2-4.3,0.5-8.7,0.6-13
			c-19.3,2.8-23.8,10.3-24.9,13.8c0.6,1.1,1.5,2.3,2.8,3.7c11.1,12.4,46.6,4.7,46.6,4.7l-3.9,23c19.3-2,37.8-7,40.4-18.2
			C1183,111.9,1185.8,100.2,1172.7,92.8z"/>
		<path opacity="0.3" fill="#825C28" d="M1121.8,100.7c-0.3,0.6-1.1,0.3-1.1-0.3c-0.2-4.3,0.5-8.7,0.6-13
			c-19.3,2.8-23.8,10.3-24.9,13.8c0.6,1.1,1.5,2.3,2.8,3.7c5.4,6,16.4,7.3,26.4,7c1.4-8.4,2.6-16.9,3.6-25.4c-0.6,0-1.3,0.1-1.9,0.1
			C1125.6,91.5,1124,96.2,1121.8,100.7z"/>
	</g>
	<path fill="#A07032" d="M976.5,110.6c0,0-8.8-11.9,7.8-16.3c16.6-4.4,78.1-17.6,85.1-30.3l-2.3,70.4
		C1067,134.4,1001.3,139.6,976.5,110.6z"/>
	<path opacity="0.3" fill="#825C28" d="M1015.8,86.4c-13.3,3.5-25.4,6.3-31.5,7.9c-16.6,4.4-7.8,16.3-7.8,16.3
		c9.1,10.6,23.6,16.6,38.4,20C1015.4,115.9,1015.8,101.1,1015.8,86.4z"/>
	<path fill="#FDE2BC" d="M1182.2,114.8c0,0,0-0.1,0-0.4c-5.6,24.6-87.7,19-87.7,19s-6.5-0.3-16.5-1c-1,4.2-2.3,8.4-3.7,12.5
		c-0.2,0.7-1.1,0.5-1.2-0.2c-0.5-4.3-0.7-8.6-1.1-12.8c-35-3-98.6-11.4-95.6-33.2c0,0-2.6,0-3.1,4.4c-1.3,11-21.7,233.6-6.2,416
		c0,0,2.1,6.3,14.3,12.3c0.5-2.4,0.9-4.9,1.8-7.2c0.2-0.5,1-0.6,1.1,0c0.5,3.1,1,6.2,1.6,9.2c9.7,4,24.4,7.5,46.3,8.7
		c0.6-2.7,1.1-5.4,1.6-8.1c0.1-0.6,1.1-0.6,1.1,0c0.5,2.8,1.1,5.5,1.8,8.3c0.1,0,0.1,0,0.2,0c18.2,0.7,32.7-1.1,44.3-3.8
		c-0.2-9.3,0.2-18.5,2.1-27.6c0.1-0.6,1-0.6,1.1,0c1.8,8.4,3.7,16.8,5.3,25.2c5.4-1.8,10-3.7,13.8-5.7c-1.4-6.3-1-13-0.6-19.4
		c0-0.6,1-0.8,1.2-0.2c1.3,5.9,2.2,11.8,2.6,17.8c9.5-5.4,13.3-10.4,13.3-10.4s-11.6-128.1,5.4-209.5
		C1142.6,227.3,1182.2,114.8,1182.2,114.8z"/>
	<path fill="#FFE9BC" d="M976.5,98.7c0,0-2.9-0.7-3.9,13.5c-1,14.1-12,174.3-11.5,262.3c0,0,9.4-222.5,16.8-267.5L976.5,98.7z"/>
	<path opacity="0.3" fill="#B0752E" d="M185.2,116.9l-1.2,333.2C184.1,450.1,191.5,208.8,185.2,116.9z"/>
</g>
</svg>
