<?xml version="1.0" encoding="utf-8"?>
<!-- Generator: Adobe Illustrator 17.1.0, SVG Export Plug-In . SVG Version: 6.00 Build 0)  -->
<!DOCTYPE svg PUBLIC "-//W3C//DTD SVG 1.1//EN" "http://www.w3.org/Graphics/SVG/1.1/DTD/svg11.dtd">
<svg version="1.1" id="Слой_1" xmlns="http://www.w3.org/2000/svg" xmlns:xlink="http://www.w3.org/1999/xlink" x="0px" y="0px"
	 viewBox="0 0 248 269" enable-background="new 0 0 248 269" xml:space="preserve">
<circle fill="#8C1E2B" cx="124.1" cy="134.6" r="124"/>
<g enable-background="new    ">
	<path fill="#FFFFFF" d="M137.7,166.1h-25.2c-0.1-3.6-0.1-5.8-0.1-6.6c0-8.2,1.3-14.9,4-20.1c2.7-5.3,8.1-11.2,16.2-17.8
		c8.1-6.6,12.9-10.9,14.5-12.9c2.4-3.2,3.6-6.8,3.6-10.7c0-5.4-2.2-10-6.5-13.9c-4.3-3.8-10.1-5.8-17.4-5.8c-7,0-12.9,2-17.7,6
		c-4.7,4-8,10.1-9.8,18.3l-25.4-3.2c0.7-11.8,5.7-21.8,15-30c9.3-8.2,21.5-12.3,36.6-12.3c15.9,0,28.6,4.2,38,12.5
		c9.4,8.3,14.1,18,14.1,29c0,6.1-1.7,11.9-5.2,17.4c-3.5,5.5-10.8,12.9-22.1,22.3c-5.9,4.9-9.5,8.8-10.9,11.7
		C138.2,153.2,137.5,158.5,137.7,166.1z M112.5,203.4v-27.7h27.7v27.7H112.5z"/>
</g>
</svg>
