<?xml version="1.0" encoding="utf-8"?>
<!-- Generator: Adobe Illustrator 17.1.0, SVG Export Plug-In . SVG Version: 6.00 Build 0)  -->
<!DOCTYPE svg PUBLIC "-//W3C//DTD SVG 1.1//EN" "http://www.w3.org/Graphics/SVG/1.1/DTD/svg11.dtd">
<svg version="1.1" id="Слой_1" xmlns="http://www.w3.org/2000/svg" xmlns:xlink="http://www.w3.org/1999/xlink" x="0px" y="0px"
	 viewBox="0 0 248 247.9" enable-background="new 0 0 248 247.9" xml:space="preserve">
<circle fill="#8C1E2B" cx="124.1" cy="124" r="124"/>
<text transform="matrix(1 0 0 1 63.601 192.8288)" display="none" fill="#FFFFFF" font-family="'Arial-BoldMT'" font-size="202">?</text>
<circle display="none" fill="#8C1E2B" cx="124.1" cy="123" r="124"/>
<path fill="#FFFFFF" d="M121.7,52.3c1.8,0,3.6,0,5.3,0c0.3,0.1,0.7,0.2,1,0.2c2.1,0.2,4.2,0.3,6.4,0.6c8.9,1.3,17.3,4.2,25.1,8.7
	c7.1,4.1,13.2,9.3,18.5,15.5c0.4,0.5,0.9,1,1.4,1.6c3.8-3.3,7.5-6.6,11.3-10c0.1,1.7,0.2,3.2,0.2,4.6c0.4,7.8,0.9,15.6,1.3,23.3
	c0.3,6.4,0.7,12.8,1,19.2c0.1,1.3,0.2,2.6,0.3,4c0,0.3,0,0.6,0,1c-0.3,0-0.6-0.1-0.9-0.1c-15.6-3.7-31.3-7.3-46.9-11
	c-0.3-0.1-0.6-0.2-1.1-0.3c4.5-4,8.9-7.9,13.3-11.8c-0.1-0.2-0.1-0.2-0.1-0.3c-0.9-1-1.7-2-2.6-2.9c-10.1-10.8-22.6-15.2-37.2-13.2
	c-10.3,1.4-18.7,6.4-25.5,14.3c-10.5,12.3-12.2,30.9-3.9,44.7c9,14.9,22.4,21.7,39.7,20.6c8.7-0.5,16.5-3.9,23.1-9.6
	c2.7-2.3,5-5.1,7.5-7.7c2.3-2.5,4.5-5.1,6.8-7.7c7.1,6.3,14.2,12.6,21.3,19c-2.5,2.8-5,5.5-7.4,8.3c-6,7.1-12.8,13.2-21,17.7
	c-8.6,4.7-17.7,7.5-27.5,8.4c-1.3,0.1-2.5,0.3-3.8,0.4c-1.8,0-3.6,0-5.3,0c-0.4-0.1-0.9-0.2-1.3-0.2c-8.7-0.5-17-2.5-24.9-6.1
	c-14.8-6.8-26-17.5-33.4-32c-3.9-7.6-6.2-15.8-6.9-24.3c-0.1-1.2-0.2-2.4-0.4-3.6c0-1.8,0-3.7,0-5.5c0.1-0.4,0.2-0.8,0.2-1.2
	c0.4-7.6,2.1-15,5.1-22c6.3-14.8,16.5-26.1,30.6-33.9c8.4-4.7,17.5-7.4,27.2-8.2C119.2,52.5,120.4,52.4,121.7,52.3z"/>
</svg>
