<?xml version="1.0" encoding="utf-8"?>
<!-- Generator: Adobe Illustrator 21.1.0, SVG Export Plug-In . SVG Version: 6.00 Build 0)  -->
<svg version="1.1" id="Слой_1" xmlns="http://www.w3.org/2000/svg" xmlns:xlink="http://www.w3.org/1999/xlink" x="0px" y="0px"
	 viewBox="0 0 207 102" style="enable-background:new 0 0 207 102;" xml:space="preserve">
<style type="text/css">
	.st0{fill:#B9B0A9;}
	.st1{fill:#E2DFDC;}
	.st2{fill:#427297;}
	.st3{fill:#9BC9D3;}
	.st4{fill:#223F31;}
	.st5{fill:#A96B28;}
	.st6{fill:#C88226;}
	.st7{fill:#548441;}
	.st8{fill:#77A169;}
	.st9{fill:#5C6E39;}
	.st10{fill:#375A42;}
	.st11{fill:#788646;}
	.st12{fill:#625B43;}
	.st13{fill:#9F8647;}
</style>
<g>
	<polygon class="st0" points="70.2,41.7 65.1,51.8 65.1,66.7 78.9,73.1 78.9,52.7 	"/>
	<polygon class="st1" points="78.9,52.7 78.9,73.1 110.1,70.9 110.1,52.7 	"/>
	<polygon class="st2" points="70.9,39.9 65.1,51.8 62.2,51.8 68.4,39.9 	"/>
	<polygon class="st3" points="103.8,39.2 68,39.4 78.9,52.7 113.4,52.7 	"/>
	<rect x="83.7" y="55" class="st4" width="2.4" height="7.8"/>
	<rect x="88" y="55" class="st4" width="2.4" height="7.8"/>
	<rect x="100.5" y="55" class="st4" width="2.4" height="7.8"/>
</g>
<g>
	<polygon class="st0" points="93.2,56.7 88.1,66.8 88.1,81.7 101.9,88.1 101.9,67.7 	"/>
	<polygon class="st1" points="101.9,67.7 101.9,88.1 133.1,85.9 133.1,67.7 	"/>
	<polygon class="st5" points="93.9,54.9 88.1,66.8 85.1,66.8 91.3,54.9 	"/>
	<polygon class="st6" points="126.8,54.3 91,54.5 101.9,67.7 136.4,67.7 	"/>
	<rect x="106.7" y="70.1" class="st4" width="2.4" height="7.8"/>
	<rect x="111" y="70.1" class="st4" width="2.4" height="7.8"/>
	<rect x="123.4" y="70.1" class="st4" width="2.4" height="7.8"/>
</g>
<g>
	<polygon class="st0" points="160.8,56.7 155.7,66.8 155.7,81.7 169.5,88.1 169.5,67.7 	"/>
	<polygon class="st1" points="169.5,67.7 169.5,88.1 200.7,85.9 200.7,67.7 	"/>
	<polygon class="st7" points="161.5,54.9 155.7,66.8 152.8,66.8 159,54.9 	"/>
	<polygon class="st8" points="194.4,54.3 158.6,54.5 169.5,67.7 204,67.7 	"/>
	<rect x="174.3" y="70.1" class="st4" width="2.4" height="7.8"/>
	<rect x="178.6" y="70.1" class="st4" width="2.4" height="7.8"/>
	<rect x="191.1" y="70.1" class="st4" width="2.4" height="7.8"/>
</g>
<path class="st9" d="M1.4,84.4c-1.5-0.8-2.5-1.2-2.2-4.1c0.9,0.2,1.9-0.3,2.9,0c-0.4-3.9,1-4.8,3.5-2.4c1-2.6,1.1-0.9,2.7-2.4
	c0.2,1.7,1.3,2.6,1.2,4.8c3.1-2.1,6,1.2,3.9,5c3.5,2.9-4.3,8.4-6.9,2.1c-1.8,4.2-5.2,2.9-6.2-1.2"/>
<path class="st10" d="M80,78.8c-1.4-1-2.3-1.7-1.7-4.5c0.9,0.4,1.9,0.1,2.8,0.6c0.1-3.9,1.6-4.5,3.8-1.7c1.2-2.4,1.2-0.7,2.9-1.9
	c0,1.8,1,2.8,0.7,4.9c3.3-1.5,5.8,2.3,3.3,5.7c3.2,3.5-5.2,7.5-7.1,0.8c-2.3,3.9-5.5,1.9-5.9-2.4"/>
<path class="st10" d="M86.7,86.5c-1.4-1.1-2.3-1.7-1.7-4.5c0.9,0.4,1.9,0,2.8,0.6c0.1-3.9,1.6-4.5,3.8-1.7c1.2-2.4,1.2-0.7,2.9-1.9
	c0,1.7,1,2.8,0.7,4.9c3.3-1.5,5.8,2.3,3.3,5.7c3.2,3.5-5.2,7.5-7.1,0.8c-2.3,3.9-5.5,1.9-5.9-2.4"/>
<path class="st11" d="M94,84.2c-1.4-1-2.3-1.7-1.7-4.5c0.9,0.4,1.9,0.1,2.8,0.6c0.1-3.9,1.6-4.6,3.8-1.7c1.2-2.4,1.2-0.7,2.9-1.9
	c0,1.8,1,2.8,0.7,4.9c3.3-1.5,5.8,2.3,3.3,5.7c3.2,3.5-5.2,7.5-7.1,0.8c-2.3,3.9-5.5,1.9-5.9-2.4"/>
<path class="st11" d="M72.1,75c-1.4-1-2.3-1.7-1.7-4.5c0.9,0.4,1.9,0.1,2.8,0.6c0.1-3.9,1.6-4.6,3.8-1.7c1.2-2.4,1.2-0.7,2.9-1.9
	c0,1.8,1,2.8,0.7,4.9c3.3-1.5,5.8,2.3,3.3,5.7c3.2,3.5-5.2,7.5-7.1,0.8c-2.3,3.9-5.5,1.9-5.9-2.4"/>
<path class="st11" d="M64.7,69.2c-1.4-1.1-2.3-1.7-1.7-4.5c0.9,0.4,1.9,0.1,2.8,0.6c0.1-3.9,1.6-4.6,3.8-1.7
	c1.2-2.4,1.2-0.7,2.9-1.9c0,1.8,1,2.8,0.7,4.9c3.3-1.5,5.8,2.3,3.3,5.7c3.2,3.5-5.2,7.5-7.1,0.8c-2.3,3.9-5.5,1.9-5.9-2.4"/>
<path class="st11" d="M77.5,70.4c-1.4-1-2.3-1.7-1.7-4.5c0.9,0.4,1.9,0.1,2.8,0.6c0.1-3.9,1.6-4.6,3.8-1.7c1.2-2.4,1.2-0.7,2.9-1.9
	c0,1.8,1,2.8,0.7,4.9c3.3-1.5,5.8,2.3,3.3,5.7c3.2,3.5-5.2,7.5-7.1,0.8c-2.3,3.9-5.5,1.9-5.9-2.4"/>
<g>
	<path class="st11" d="M11.1,10.7c0,0-14.6,32.1-4.3,58.9l3.7,6.9c0,0,11-4.6,9.7-27.5C19,26,15.4-6.1,11.1,10.7z"/>
	<rect x="9.9" y="72.7" class="st12" width="1.2" height="9.9"/>
</g>
<g>
	<path class="st13" d="M139.1,4.6c0,0-14.6,32.1-4.3,58.9l3.7,6.9c0,0,11-4.6,9.8-27.5C147,19.9,143.3-12.2,139.1,4.6z"/>
	<rect x="137.9" y="66.6" class="st12" width="1.2" height="9.9"/>
</g>
<path class="st11" d="M133.6,81.9c-1.4-1-2.3-1.7-1.7-4.5c0.9,0.4,1.9,0.1,2.8,0.6c0.1-3.9,1.6-4.5,3.8-1.7c1.2-2.4,1.2-0.7,2.9-1.9
	c0,1.8,1,2.8,0.7,4.9c3.3-1.5,5.8,2.3,3.3,5.7c3.2,3.5-5.2,7.5-7.1,0.8c-2.3,3.9-5.5,1.9-5.9-2.4"/>
<path class="st11" d="M110.9,87.2c-1.7-1.3-2.9-2.1-2.2-5.6c1.1,0.5,2.4,0.1,3.6,0.7c0.1-5,2-5.7,4.8-2.2c1.6-3,1.5-0.9,3.7-2.4
	c0,2.2,1.2,3.6,0.8,6.2c4.2-1.9,7.3,2.9,4.2,7.2c4,4.4-6.5,9.4-8.9,1c-2.8,4.9-6.9,2.4-7.5-3"/>
<path class="st10" d="M125.7,85.7c-1.4-1-2.3-1.7-1.7-4.5c0.9,0.4,1.9,0.1,2.8,0.6c0.1-3.9,1.6-4.6,3.8-1.7c1.2-2.4,1.2-0.7,2.9-1.9
	c0,1.8,1,2.8,0.7,4.9c3.3-1.5,5.8,2.3,3.3,5.7c3.2,3.5-5.2,7.5-7.1,0.8c-2.3,3.9-5.5,1.9-5.9-2.4"/>
<g>
	<path class="st11" d="M151.3,9.2c0,0-14.6,32.1-4.3,58.9l3.7,6.9c0,0,11-4.6,9.7-27.5C159.2,24.5,155.5-7.6,151.3,9.2z"/>
	<rect x="150" y="71.2" class="st12" width="1.2" height="9.9"/>
</g>
<path class="st10" d="M103.7,90.3c-1.4-1-2.3-1.7-1.7-4.5c0.9,0.4,1.9,0.1,2.8,0.6c0.1-3.9,1.6-4.6,3.8-1.7c1.2-2.4,1.2-0.7,2.9-1.9
	c0,1.8,1,2.8,0.7,4.9c3.3-1.5,5.8,2.3,3.3,5.7c3.2,3.5-5.2,7.5-7.1,0.8c-2.3,3.9-5.5,1.9-5.9-2.4"/>
<g>
	<polygon class="st0" points="24.5,57.8 19.4,67.8 19.4,82.7 33.2,89.2 33.2,68.8 	"/>
	<polygon class="st1" points="33.2,68.8 33.2,89.2 64.4,86.9 64.4,68.8 	"/>
	<polygon class="st2" points="25.2,55.9 19.4,67.8 16.5,67.8 22.7,55.9 	"/>
	<polygon class="st3" points="58.1,55.3 22.3,55.5 33.2,68.8 67.7,68.8 	"/>
	<rect x="38" y="71.1" class="st4" width="2.4" height="7.8"/>
	<rect x="42.3" y="71.1" class="st4" width="2.4" height="7.8"/>
	<rect x="54.8" y="71.1" class="st4" width="2.4" height="7.8"/>
</g>
<path class="st4" d="M13.6,87.2c-1.4-1-2.3-1.6-1.7-4.5c0.9,0.4,1.9,0.1,2.8,0.6c0.1-3.9,1.6-4.5,3.8-1.7c1.2-2.4,1.2-0.7,2.9-1.9
	c0,1.8,1,2.8,0.7,4.9c3.3-1.5,5.8,2.3,3.3,5.7c3.2,3.5-5.2,7.5-7.1,0.8c-2.3,3.9-5.5,1.9-5.9-2.4"/>
<path class="st10" d="M43.1,89.3c-1.6-1.2-2.8-2-2.1-5.3c1.1,0.4,2.2,0.1,3.4,0.7c0.1-4.7,1.9-5.4,4.5-2.1c1.5-2.8,1.4-0.9,3.5-2.2
	c0,2.1,1.2,3.4,0.8,5.9c3.9-1.8,6.9,2.7,3.9,6.7c3.7,4.2-6.2,8.9-8.4,1c-2.7,4.6-6.5,2.3-7.1-2.8"/>
<path class="st10" d="M27.9,89.3c-1.6-1.2-2.8-2-2.1-5.3c1.1,0.4,2.2,0.1,3.4,0.7c0.1-4.7,1.9-5.4,4.5-2.1c1.5-2.8,1.4-0.9,3.5-2.2
	c0,2.1,1.2,3.4,0.8,5.9c3.9-1.8,6.8,2.7,3.9,6.7c3.8,4.2-6.2,8.9-8.4,1c-2.7,4.6-6.5,2.3-7.1-2.8"/>
<g>
	<path class="st11" d="M196.8,22.7c0,0-14.6,32.1-4.3,58.9l3.7,6.9c0,0,11-4.6,9.7-27.5C204.7,38,201,5.9,196.8,22.7z"/>
	<rect x="195.5" y="84.7" class="st12" width="1.2" height="9.9"/>
</g>
<path class="st4" d="M54.2,91.2c-1.4-1-2.3-1.6-1.7-4.5c0.9,0.4,1.9,0.1,2.8,0.6c0.1-3.9,1.6-4.5,3.8-1.7c1.2-2.4,1.2-0.7,2.9-1.9
	c0,1.8,1,2.8,0.7,4.9c3.3-1.5,5.8,2.3,3.3,5.7c3.2,3.5-5.2,7.5-7.1,0.8c-2.3,3.9-5.5,1.9-5.9-2.4"/>
<path class="st10" d="M83.7,93.3c-1.6-1.2-2.8-2-2.1-5.3c1.1,0.4,2.2,0.1,3.4,0.7c0.1-4.7,1.9-5.4,4.5-2.1c1.5-2.8,1.4-0.9,3.5-2.2
	c0,2.1,1.2,3.4,0.8,5.9c3.9-1.8,6.9,2.7,3.9,6.7c3.7,4.2-6.2,8.9-8.4,1c-2.7,4.6-6.5,2.3-7.1-2.8"/>
<path class="st10" d="M68.5,93.3c-1.6-1.2-2.8-2-2.1-5.3c1.1,0.4,2.2,0.1,3.4,0.7c0.1-4.7,1.9-5.4,4.5-2.1c1.5-2.8,1.4-0.9,3.5-2.2
	c0,2.1,1.2,3.4,0.8,5.9c3.9-1.8,6.8,2.7,3.9,6.7c3.8,4.2-6.2,8.9-8.4,1c-2.7,4.6-6.5,2.3-7.1-2.8"/>
<path class="st4" d="M147.4,88.2c-1.4-1-2.3-1.6-1.7-4.5c0.9,0.4,1.9,0.1,2.8,0.6c0.1-3.9,1.6-4.5,3.8-1.7c1.2-2.4,1.2-0.7,2.9-1.9
	c0,1.8,1,2.8,0.7,4.9c3.3-1.5,5.8,2.3,3.3,5.7c3.2,3.5-5.2,7.5-7.1,0.8c-2.3,3.9-5.5,1.9-5.9-2.4"/>
<path class="st10" d="M177,90.3c-1.6-1.2-2.8-2-2.1-5.3c1.1,0.4,2.2,0.1,3.4,0.7c0.1-4.7,1.9-5.4,4.5-2.1c1.5-2.8,1.4-0.9,3.5-2.2
	c0,2.1,1.2,3.4,0.8,5.9c3.9-1.8,6.9,2.7,3.9,6.7c3.7,4.2-6.2,8.9-8.4,1c-2.7,4.6-6.5,2.3-7.1-2.8"/>
<path class="st10" d="M161.8,90.3c-1.6-1.2-2.8-2-2.1-5.3c1.1,0.4,2.2,0.1,3.4,0.7c0.1-4.7,1.9-5.4,4.5-2.1c1.5-2.8,1.4-0.9,3.5-2.2
	c0,2.1,1.2,3.4,0.8,5.9c3.9-1.8,6.8,2.7,3.9,6.7c3.8,4.2-6.2,8.9-8.4,1c-2.7,4.6-6.5,2.3-7.1-2.8"/>
<path class="st4" d="M119.5,90.2c-1.4-1-2.3-1.6-1.7-4.5c0.9,0.4,1.9,0.1,2.8,0.6c0.1-3.9,1.6-4.5,3.8-1.7c1.2-2.4,1.2-0.7,2.9-1.9
	c0,1.8,1,2.8,0.7,4.9c3.3-1.5,5.8,2.3,3.3,5.7c3.2,3.5-5.2,7.5-7.1,0.8c-2.3,3.9-5.5,1.9-5.9-2.4"/>
<path class="st10" d="M149.1,92.3c-1.6-1.2-2.8-2-2.1-5.3c1.1,0.4,2.2,0.1,3.4,0.7c0.1-4.7,1.9-5.4,4.5-2.1c1.5-2.8,1.4-0.9,3.5-2.2
	c0,2.1,1.2,3.4,0.8,5.9c3.9-1.8,6.9,2.7,3.9,6.7c3.7,4.2-6.2,8.9-8.4,1c-2.7,4.6-6.5,2.3-7.1-2.8"/>
<path class="st10" d="M133.9,92.3c-1.6-1.2-2.8-2-2.1-5.3c1.1,0.4,2.2,0.1,3.4,0.7c0.1-4.7,1.9-5.4,4.5-2.1c1.5-2.8,1.4-0.9,3.5-2.2
	c0,2.1,1.2,3.4,0.8,5.9c3.9-1.8,6.8,2.7,3.9,6.7c3.8,4.2-6.2,8.9-8.4,1c-2.7,4.6-6.5,2.3-7.1-2.8"/>
</svg>
