<?xml version="1.0" encoding="utf-8"?>
<!-- Generator: Adobe Illustrator 21.1.0, SVG Export Plug-In . SVG Version: 6.00 Build 0)  -->
<svg version="1.1" id="Слой_1" xmlns="http://www.w3.org/2000/svg" xmlns:xlink="http://www.w3.org/1999/xlink" x="0px" y="0px"
	 viewBox="0 0 110 52" style="enable-background:new 0 0 110 52;" xml:space="preserve">
<style type="text/css">
	.st0{fill:#375A42;}
	.st1{fill:#4D6D55;}
	.st2{fill:#B9B0A9;}
	.st3{fill:#E2DFDC;}
	.st4{fill:#427297;}
	.st5{fill:#9BC9D3;}
	.st6{fill:#223F31;}
	.st7{fill:#788646;}
	.st8{fill:#625B43;}
	.st9{fill:#9F8647;}
	.st10{fill:#548441;}
	.st11{fill:#77A169;}
	.st12{fill:#A96B28;}
	.st13{fill:#C88226;}
</style>
<path class="st0" d="M55.8,51.8C39.4,51.8,0,46.1,0,46.1s53.3-27.9,53.4-27.9c2.7-1.4,4.8-3,8-3.7c7.1-1.4,16.2,1.3,21.4,6.3
	c4.3,4.1,9.4,7,13.9,10.8c3.3,2.8,5.9,6.2,8.5,9.6c1.4,1.8,2.7,3.6,4.1,5.4c0.3,0.4,0.6,1,0.3,1.4c-0.2,0.2-0.5,0.3-0.8,0.4
	c-9.4,2.3-18.9,2.6-28.5,3C72.1,51.7,64,51.8,55.8,51.8z"/>
<g>
	<path class="st1" d="M47.3,11.6c-1.1,0.8-0.7,2.9-0.6,4.3c-0.3,1,0.1,2.3,0.8,3.5c0.4,0.8,1,1,1.2,1.5c-0.7,0.3-0.8,0.2-1.5,0.3
		c-0.7-0.8-0.9-1.3-1.1-2.1c-0.2-1-0.3-2-0.2-3c0.1-1.2,0.3-3.4,0.9-4.3"/>
	<path class="st1" d="M48.3,12.3c0.1-0.4-0.1-0.7-0.5-0.6c0-0.5-0.6-0.4-0.9,0c-0.3-0.5-1.3-0.3-1.2,0.4c-0.7-0.3-1.1-0.1-0.9,0.5
		c-0.3-0.2-1,0.5-1.2,0.7c0,0.1,0.8,0.3,1.4-0.1c0.3,0.3,0.7,0.2,1.1,0c0.4,0.4,1.3,0.5,1.4-0.2c0.3,0.4,1.1,0.3,1.3,0
		c0.9,0.4,1.4-0.6,0.6-0.3c-0.1-0.5-0.5-0.4-0.8,0c0.1-0.2,0-0.3,0-0.5C48.4,12.2,48.3,12.2,48.3,12.3"/>
	<path class="st1" d="M41.5,16.2c0.2-0.3,0.5-0.6,0.8-0.8c0.1-0.2,0.4-0.4,0.6-0.1c-0.2-0.6,0.8-0.8,1.1-0.3c0.3-0.5,1-0.7,1.4-0.3
		c0.2-0.5,0.8-0.2,1,0.2l0.2,0.3c0.1,0,0.2,0,0.3,0c0.3,1.1-2.1,1.2-2.8,1.1c-0.1,0-0.2,0-0.4,0C43,16.2,42.2,16.3,41.5,16.2z"/>
	<path class="st1" d="M51.1,15.6c-0.3-0.2-0.6-0.4-1-0.5c-0.2-0.2-0.5-0.2-0.6,0c0-0.7-1-0.5-1.1,0.1c-0.4-0.3-1.2-0.3-1.5,0.2
		c-0.3-0.4-0.8,0-0.8,0.5L46,16.2c-0.1,0-0.2,0-0.2,0.1c0.1,1.1,2.4,0.4,3,0.1c0.1,0,0.2-0.1,0.4-0.2C49.8,16.1,50.5,15.9,51.1,15.6
		z"/>
</g>
<g>
	<path class="st1" d="M41.5,14.9c-1.1,0.8-0.8,2.9-0.7,4.3c-0.4,1,0.1,2.3,0.7,3.5c0.4,0.8,0.9,1,1.2,1.6c-0.8,0.2-0.8,0.2-1.6,0.3
		c-0.6-0.9-0.8-1.3-1-2.1c-0.2-1-0.3-2-0.1-3c0.1-1.2,0.4-3.4,1-4.3"/>
	<path class="st1" d="M42.4,15.6c0.2-0.4,0-0.7-0.5-0.6c0-0.5-0.6-0.5-0.9-0.1c-0.3-0.5-1.3-0.3-1.2,0.3c-0.7-0.3-1.1-0.1-0.9,0.5
		c-0.3-0.2-1,0.5-1.2,0.7c0,0.1,0.8,0.3,1.4-0.1c0.2,0.3,0.7,0.2,1.1,0c0.4,0.4,1.3,0.5,1.4-0.2c0.3,0.4,1.1,0.3,1.3,0.1
		c0.8,0.5,1.4-0.6,0.6-0.3c-0.1-0.5-0.5-0.4-0.8-0.1c0.1-0.2,0-0.3,0-0.5C42.6,15.5,42.4,15.6,42.4,15.6"/>
	<path class="st1" d="M35.6,19.3c0.2-0.3,0.5-0.6,0.8-0.7c0.1-0.2,0.4-0.4,0.6-0.1c-0.1-0.6,0.8-0.8,1.1-0.3c0.3-0.5,1-0.7,1.5-0.3
		c0.2-0.5,0.8-0.2,0.9,0.2l0.2,0.3c0.1,0,0.2,0,0.3,0c0.3,1.1-2.2,1.1-2.8,1c-0.1,0-0.2,0-0.4-0.1C37,19.4,36.2,19.4,35.6,19.3z"/>
	<path class="st1" d="M45.2,19c-0.3-0.2-0.6-0.5-1-0.5c-0.2-0.2-0.5-0.2-0.6,0c0-0.7-1-0.5-1.1,0c-0.4-0.4-1.2-0.4-1.5,0.1
		c-0.3-0.4-0.8,0-0.8,0.5l-0.1,0.4c-0.1,0-0.2,0-0.3,0c0,1.1,2.4,0.5,3,0.2c0.1,0,0.2-0.1,0.4-0.2C43.8,19.5,44.6,19.3,45.2,19z"/>
</g>
<g>
	<polygon class="st2" points="56.2,16.7 53.6,20.8 53.6,26.9 60.8,29.6 60.8,21.2 	"/>
	<polygon class="st3" points="60.8,21.2 60.8,29.6 76.8,28.6 76.8,21.2 	"/>
	<polygon class="st4" points="56.6,15.9 53.6,20.8 52.1,20.8 55.3,15.9 	"/>
	<polygon class="st5" points="73.6,15.6 55.1,15.7 60.8,21.2 78.5,21.2 	"/>
	<rect x="63.2" y="22.1" class="st6" width="1.2" height="3.2"/>
	<rect x="65.4" y="22.1" class="st6" width="1.2" height="3.2"/>
	<rect x="71.9" y="22.1" class="st6" width="1.2" height="3.2"/>
</g>
<path class="st7" d="M53.4,28c-0.7-0.4-1.2-0.7-0.9-1.8c0.5,0.1,1,0,1.5,0.2c0.1-1.6,0.8-1.9,2-0.7c0.6-1,0.6-0.3,1.5-0.8
	c0,0.7,0.5,1.2,0.3,2c1.7-0.6,3,0.9,1.7,2.3c1.6,1.4-2.7,3.1-3.6,0.3c-1.2,1.6-2.8,0.8-3.1-1"/>
<g>
	<path class="st7" d="M26.8,3.9c0,0-7.5,13.2-2.2,24.2l1.9,2.8c0,0,5.7-1.9,5-11.3C30.9,10.2,29-3,26.8,3.9z"/>
	<rect x="26.1" y="29.4" class="st8" width="0.6" height="4.1"/>
</g>
<g>
	<polygon class="st2" points="32.7,23.3 30,27.4 30,33.5 37.2,36.2 37.2,27.8 	"/>
	<polygon class="st3" points="37.2,27.8 37.2,36.2 53.3,35.2 53.3,27.8 	"/>
	<polygon class="st4" points="33,22.5 30,27.4 28.5,27.4 31.7,22.5 	"/>
	<polygon class="st5" points="50,22.2 31.5,22.3 37.2,27.8 55,27.8 	"/>
	<rect x="39.6" y="28.7" class="st6" width="1.2" height="3.2"/>
	<rect x="41.9" y="28.7" class="st6" width="1.2" height="3.2"/>
	<rect x="48.3" y="28.7" class="st6" width="1.2" height="3.2"/>
</g>
<path class="st1" d="M26.7,37c-0.8-0.5-1.3-0.7-1-2c0.5,0.2,1,0,1.6,0.3c0.1-1.7,0.9-2,2.1-0.8c0.7-1,0.7-0.3,1.6-0.8
	c0,0.8,0.5,1.3,0.4,2.2c1.8-0.7,3.2,1,1.8,2.5c1.8,1.6-2.9,3.3-3.9,0.4c-1.3,1.7-3,0.9-3.3-1"/>
<path class="st7" d="M30.7,36c-0.8-0.5-1.3-0.7-1-2c0.5,0.2,1.1,0,1.6,0.3c0.1-1.7,0.9-2,2.1-0.8c0.7-1,0.7-0.3,1.6-0.8
	c0,0.8,0.5,1.3,0.4,2.2c1.8-0.7,3.2,1,1.8,2.5c1.8,1.6-2.9,3.3-3.9,0.4c-1.3,1.7-3,0.9-3.3-1"/>
<path class="st7" d="M40.1,37.3c-1-0.6-1.6-0.9-1.2-2.5c0.6,0.2,1.3,0,2,0.3c0.1-2.2,1.1-2.5,2.7-1c0.9-1.3,0.8-0.4,2-1
	c0,1,0.7,1.6,0.5,2.8c2.3-0.9,4,1.3,2.3,3.2c2.2,2-3.6,4.2-4.9,0.4c-1.6,2.2-3.8,1.1-4.2-1.3"/>
<g>
	<path class="st9" d="M79,2.3c0,0-5.4,9-1.6,16.5l1.3,1.9c0,0,4-1.3,3.6-7.7S80.5-2.4,79,2.3z"/>
	<rect x="78.5" y="19.7" class="st8" width="0.4" height="2.8"/>
</g>
<path class="st1" d="M48.3,36.6c-0.8-0.5-1.3-0.7-1-2c0.5,0.2,1,0,1.6,0.3c0.1-1.7,0.9-2,2.1-0.8c0.7-1,0.7-0.3,1.6-0.8
	c0,0.8,0.5,1.3,0.4,2.2c1.8-0.7,3.2,1,1.8,2.5c1.8,1.6-2.9,3.3-3.9,0.4c-1.3,1.7-3,0.9-3.3-1.1"/>
<path class="st1" d="M36.1,38.7c-0.8-0.5-1.3-0.7-1-2c0.5,0.2,1,0,1.6,0.3c0.1-1.7,0.9-2,2.1-0.8c0.7-1,0.7-0.3,1.6-0.8
	c0,0.8,0.5,1.3,0.4,2.2c1.8-0.7,3.2,1,1.8,2.5c1.8,1.6-2.9,3.3-3.9,0.4c-1.3,1.7-3,0.9-3.3-1"/>
<g>
	<polygon class="st2" points="75.4,25.1 72.5,29.5 72.5,36.1 80.2,39 80.2,29.9 	"/>
	<polygon class="st3" points="80.2,29.9 80.2,39 97.5,38 97.5,29.9 	"/>
	<polygon class="st10" points="75.8,24.3 72.5,29.5 70.9,29.5 74.3,24.3 	"/>
	<polygon class="st11" points="94,24 74.1,24.1 80.2,29.9 99.3,29.9 	"/>
	<rect x="82.9" y="31" class="st6" width="1.3" height="3.5"/>
	<rect x="85.2" y="31" class="st6" width="1.3" height="3.5"/>
	<rect x="92.1" y="31" class="st6" width="1.3" height="3.5"/>
</g>
<g>
	<path class="st1" d="M74.7,40c-0.8-0.5-1.3-0.7-1-2c0.5,0.2,1,0,1.6,0.3c0.1-1.7,0.9-2,2.1-0.8c0.7-1,0.7-0.3,1.6-0.8
		c0,0.8,0.5,1.3,0.4,2.2c1.8-0.7,3.2,1,1.8,2.5c1.8,1.6-2.9,3.3-3.9,0.4c-1.3,1.7-3,0.9-3.3-1"/>
	<path class="st7" d="M78.7,39c-0.8-0.5-1.3-0.7-1-2c0.5,0.2,1.1,0,1.6,0.3c0.1-1.7,0.9-2,2.1-0.8c0.7-1,0.7-0.3,1.6-0.8
		c0,0.8,0.5,1.3,0.4,2.2c1.8-0.7,3.2,1,1.8,2.5c1.8,1.6-2.9,3.3-3.9,0.4c-1.3,1.7-3,0.9-3.3-1"/>
	<path class="st7" d="M88.1,40.3c-1-0.6-1.6-0.9-1.2-2.5c0.6,0.2,1.3,0,2,0.3c0.1-2.2,1.1-2.5,2.7-1c0.9-1.3,0.8-0.4,2-1
		c0,1,0.7,1.6,0.5,2.8c2.3-0.9,4,1.3,2.3,3.2c2.2,2-3.6,4.2-4.9,0.4c-1.6,2.2-3.8,1.1-4.2-1.3"/>
	<path class="st1" d="M96.3,39.6c-0.8-0.5-1.3-0.7-1-2c0.5,0.2,1,0,1.6,0.3c0.1-1.7,0.9-2,2.1-0.8c0.7-1,0.7-0.3,1.6-0.8
		c0,0.8,0.5,1.3,0.4,2.2c1.8-0.7,3.2,1,1.8,2.5c1.8,1.6-2.9,3.3-3.9,0.4c-1.3,1.7-3,0.9-3.3-1.1"/>
	<path class="st1" d="M84.1,41.7c-0.8-0.5-1.3-0.7-1-2c0.5,0.2,1,0,1.6,0.3c0.1-1.7,0.9-2,2.1-0.8c0.7-1,0.7-0.3,1.6-0.8
		c0,0.8,0.5,1.3,0.4,2.2c1.8-0.7,3.2,1,1.8,2.5c1.8,1.6-2.9,3.3-3.9,0.4c-1.3,1.7-3,0.9-3.3-1"/>
</g>
<g>
	<polygon class="st2" points="56.6,35.1 53.8,39.6 53.8,46.2 61.4,49 61.4,40 	"/>
	<polygon class="st3" points="61.4,40 61.4,49 78.7,48 78.7,40 	"/>
	<polygon class="st12" points="57,34.3 53.8,39.6 52.1,39.6 55.6,34.3 	"/>
	<polygon class="st13" points="75.2,34 55.4,34.1 61.4,40 80.6,40 	"/>
	<rect x="64.1" y="41" class="st6" width="1.3" height="3.5"/>
	<rect x="66.5" y="41" class="st6" width="1.3" height="3.5"/>
	<rect x="73.4" y="41" class="st6" width="1.3" height="3.5"/>
</g>
<path class="st7" d="M53.4,46c-0.7-0.4-1.2-0.7-0.9-1.8c0.5,0.1,1,0,1.5,0.2c0.1-1.6,0.8-1.9,2-0.7c0.6-1,0.6-0.3,1.5-0.8
	c0,0.7,0.5,1.2,0.3,2c1.7-0.6,3,0.9,1.7,2.3c1.6,1.4-2.7,3.1-3.6,0.3c-1.2,1.6-2.8,0.8-3.1-1"/>
<path class="st1" d="M74.1,48.7c-0.8-0.5-1.3-0.7-1-2c0.5,0.2,1,0,1.6,0.3c0.1-1.7,0.9-2,2.1-0.8c0.7-1,0.7-0.3,1.6-0.8
	c0,0.8,0.5,1.3,0.4,2.2c1.8-0.7,3.2,1,1.8,2.5c1.8,1.6-2.9,3.3-3.9,0.4c-1.3,1.7-3,0.9-3.3-1"/>
<g>
	<path class="st7" d="M83,9.9c0,0-3.7,6.5-1.1,11.9l0.9,1.4c0,0,2.8-0.9,2.5-5.6C85,13,84.1,6.5,83,9.9z"/>
	<rect x="82.7" y="22.5" class="st8" width="0.3" height="2"/>
</g>
</svg>
