<?xml version="1.0" encoding="utf-8"?>
<!-- Generator: Adobe Illustrator 21.1.0, SVG Export Plug-In . SVG Version: 6.00 Build 0)  -->
<svg version="1.1" id="Слой_1" xmlns="http://www.w3.org/2000/svg" xmlns:xlink="http://www.w3.org/1999/xlink" x="0px" y="0px"
	 viewBox="0 0 128 99" style="enable-background:new 0 0 128 99;" xml:space="preserve">
<style type="text/css">
	.st0{fill:#B9B0A9;}
	.st1{fill:#E2DFDC;}
	.st2{fill:#548441;}
	.st3{fill:#77A169;}
	.st4{fill:#223F31;}
	.st5{fill:#427297;}
	.st6{fill:#9BC9D3;}
	.st7{fill:#788646;}
	.st8{fill:#5C6E39;}
	.st9{fill:#375A42;}
	.st10{fill:#625B43;}
	.st11{fill:#9F8647;}
</style>
<g>
	<polygon class="st0" points="24.8,13.7 19.7,23.8 19.7,38.7 33.5,45.1 33.5,24.7 	"/>
	<polygon class="st1" points="33.5,24.7 33.5,45.1 64.7,42.9 64.7,24.7 	"/>
	<polygon class="st2" points="25.5,11.9 19.7,23.8 16.8,23.8 23,11.9 	"/>
	<polygon class="st3" points="58.4,11.3 22.6,11.5 33.5,24.7 68,24.7 	"/>
	<rect x="38.3" y="27.1" class="st4" width="2.4" height="7.8"/>
	<rect x="42.6" y="27.1" class="st4" width="2.4" height="7.8"/>
	<rect x="55.1" y="27.1" class="st4" width="2.4" height="7.8"/>
</g>
<g>
	<polygon class="st0" points="117.4,12.7 122.5,22.8 122.5,37.7 108.6,44.1 108.6,23.7 	"/>
	<polygon class="st1" points="108.6,23.7 108.6,44.1 77.4,41.9 77.4,23.7 	"/>
	<polygon class="st5" points="116.6,10.9 122.5,22.8 125.4,22.8 119.2,10.9 	"/>
	<polygon class="st6" points="83.7,10.2 119.5,10.4 108.6,23.7 74.2,23.7 	"/>
	<rect x="101.4" y="26" class="st4" width="2.4" height="7.8"/>
	<rect x="97.1" y="26" class="st4" width="2.4" height="7.8"/>
	<rect x="84.7" y="26" class="st4" width="2.4" height="7.8"/>
</g>
<path class="st7" d="M64.7,38.2c-1.4-1.1-2.3-1.7-1.7-4.5c0.9,0.4,1.9,0.1,2.8,0.6c0.1-3.9,1.6-4.6,3.8-1.7c1.2-2.4,1.2-0.7,2.9-1.9
	c0,1.8,1,2.8,0.7,4.9c3.3-1.5,5.8,2.3,3.3,5.7c3.2,3.5-5.2,7.5-7.1,0.8c-2.3,3.9-5.5,1.9-5.9-2.4"/>
<g>
	<polygon class="st0" points="59.2,38.7 54.1,48.8 54.1,63.7 67.9,70.1 67.9,49.7 	"/>
	<polygon class="st1" points="67.9,49.7 67.9,70.1 99.1,67.9 99.1,49.7 	"/>
	<polygon class="st5" points="59.9,36.9 54.1,48.8 51.2,48.8 57.4,36.9 	"/>
	<polygon class="st6" points="92.8,36.2 57,36.4 67.9,49.7 102.4,49.7 	"/>
	<rect x="72.7" y="52" class="st4" width="2.4" height="7.8"/>
	<rect x="77" y="52" class="st4" width="2.4" height="7.8"/>
	<rect x="89.5" y="52" class="st4" width="2.4" height="7.8"/>
</g>
<path class="st8" d="M3.4,82.4c-1.5-0.8-2.5-1.2-2.2-4.1c0.9,0.2,1.9-0.3,2.9,0c-0.4-3.9,1-4.8,3.5-2.4c1-2.6,1.1-0.9,2.7-2.4
	c0.2,1.7,1.3,2.6,1.2,4.8c3.1-2.1,6,1.2,3.9,5c3.5,2.9-4.3,8.4-6.9,2.1c-1.8,4.2-5.2,2.9-6.2-1.2"/>
<path class="st9" d="M82,76.8c-1.4-1-2.3-1.7-1.7-4.5c0.9,0.4,1.9,0.1,2.8,0.6c0.1-3.9,1.6-4.5,3.8-1.7c1.2-2.4,1.2-0.7,2.9-1.9
	c0,1.8,1,2.8,0.7,4.9c3.3-1.5,5.8,2.3,3.3,5.7c3.2,3.5-5.2,7.5-7.1,0.8c-2.3,3.9-5.5,1.9-5.9-2.4"/>
<path class="st9" d="M88.7,84.5c-1.4-1.1-2.3-1.7-1.7-4.5c0.9,0.4,1.9,0,2.8,0.6c0.1-3.9,1.6-4.5,3.8-1.7c1.2-2.4,1.2-0.7,2.9-1.9
	c0,1.7,1,2.8,0.7,4.9c3.3-1.5,5.8,2.3,3.3,5.7c3.2,3.5-5.2,7.5-7.1,0.8c-2.3,3.9-5.5,1.9-5.9-2.4"/>
<path class="st7" d="M96,82.2c-1.4-1-2.3-1.7-1.7-4.5c0.9,0.4,1.9,0.1,2.8,0.6c0.1-3.9,1.6-4.6,3.8-1.7c1.2-2.4,1.2-0.7,2.9-1.9
	c0,1.8,1,2.8,0.7,4.9c3.3-1.5,5.8,2.3,3.3,5.7c3.2,3.5-5.2,7.5-7.1,0.8c-2.3,3.9-5.5,1.9-5.9-2.4"/>
<path class="st7" d="M74.1,73c-1.4-1-2.3-1.7-1.7-4.5c0.9,0.4,1.9,0.1,2.8,0.6c0.1-3.9,1.6-4.6,3.8-1.7c1.2-2.4,1.2-0.7,2.9-1.9
	c0,1.8,1,2.8,0.7,4.9c3.3-1.5,5.8,2.3,3.3,5.7c3.2,3.5-5.2,7.5-7.1,0.8c-2.3,3.9-5.5,1.9-5.9-2.4"/>
<path class="st7" d="M66.7,67.2c-1.4-1.1-2.3-1.7-1.7-4.5c0.9,0.4,1.9,0.1,2.8,0.6c0.1-3.9,1.6-4.6,3.8-1.7c1.2-2.4,1.2-0.7,2.9-1.9
	c0,1.8,1,2.8,0.7,4.9c3.3-1.5,5.8,2.3,3.3,5.7c3.2,3.5-5.2,7.5-7.1,0.8c-2.3,3.9-5.5,1.9-5.9-2.4"/>
<path class="st7" d="M79.5,68.4c-1.4-1-2.3-1.7-1.7-4.5c0.9,0.4,1.9,0.1,2.8,0.6c0.1-3.9,1.6-4.6,3.8-1.7c1.2-2.4,1.2-0.7,2.9-1.9
	c0,1.8,1,2.8,0.7,4.9c3.3-1.5,5.8,2.3,3.3,5.7c3.2,3.5-5.2,7.5-7.1,0.8c-2.3,3.9-5.5,1.9-5.9-2.4"/>
<g>
	<path class="st7" d="M13.1,8.7c0,0-14.6,32.1-4.3,58.9l3.7,6.9c0,0,11-4.6,9.7-27.5C21,24,17.4-8.1,13.1,8.7z"/>
	<rect x="11.9" y="70.7" class="st10" width="1.2" height="9.9"/>
</g>
<g>
	<path class="st11" d="M119.1,5.6c0,0-14.6,32.1-4.3,58.9l3.7,6.9c0,0,11-4.6,9.8-27.5C127,20.9,123.3-11.2,119.1,5.6z"/>
	<rect x="117.9" y="67.6" class="st10" width="1.2" height="9.9"/>
</g>
<path class="st7" d="M70.4,91.2c-1.2-1-2.1-1.5-1.6-4.1c0.8,0.3,1.7,0,2.6,0.5c0.1-3.6,1.4-4.1,3.4-1.6c1.1-2.1,1.1-0.7,2.6-1.7
	c0,1.6,0.9,2.6,0.6,4.5c3-1.4,5.2,2.1,3,5.2c2.9,3.2-4.7,6.8-6.4,0.7c-2,3.5-5,1.8-5.4-2.2"/>
<g>
	<path class="st7" d="M110.3,26.2c0,0-14.6,32.1-4.3,58.9l3.7,6.9c0,0,11-4.6,9.7-27.5C118.2,41.5,114.5,9.4,110.3,26.2z"/>
	<rect x="109" y="88.2" class="st10" width="1.2" height="9.9"/>
</g>
<g>
	<polygon class="st0" points="26.5,55.8 21.4,65.8 21.4,80.7 35.2,87.2 35.2,66.8 	"/>
	<polygon class="st1" points="35.2,66.8 35.2,87.2 66.4,84.9 66.4,66.8 	"/>
	<polygon class="st5" points="27.2,53.9 21.4,65.8 18.5,65.8 24.7,53.9 	"/>
	<polygon class="st6" points="60.1,53.3 24.3,53.5 35.2,66.8 69.7,66.8 	"/>
	<rect x="40" y="69.1" class="st4" width="2.4" height="7.8"/>
	<rect x="44.3" y="69.1" class="st4" width="2.4" height="7.8"/>
	<rect x="56.8" y="69.1" class="st4" width="2.4" height="7.8"/>
</g>
<path class="st4" d="M15.6,85.2c-1.4-1-2.3-1.6-1.7-4.5c0.9,0.4,1.9,0.1,2.8,0.6c0.1-3.9,1.6-4.5,3.8-1.7c1.2-2.4,1.2-0.7,2.9-1.9
	c0,1.8,1,2.8,0.7,4.9c3.3-1.5,5.8,2.3,3.3,5.7c3.2,3.5-5.2,7.5-7.1,0.8c-2.3,3.9-5.5,1.9-5.9-2.4"/>
<path class="st9" d="M45.1,87.3c-1.6-1.2-2.8-2-2.1-5.3c1.1,0.4,2.2,0.1,3.4,0.7c0.1-4.7,1.9-5.4,4.5-2.1c1.5-2.8,1.4-0.9,3.5-2.2
	c0,2.1,1.2,3.4,0.8,5.9c3.9-1.8,6.9,2.7,3.9,6.7c3.7,4.2-6.2,8.9-8.4,1c-2.7,4.6-6.5,2.3-7.1-2.8"/>
<path class="st9" d="M29.9,87.3c-1.6-1.2-2.8-2-2.1-5.3c1.1,0.4,2.2,0.1,3.4,0.7c0.1-4.7,1.9-5.4,4.5-2.1c1.5-2.8,1.4-0.9,3.5-2.2
	c0,2.1,1.2,3.4,0.8,5.9c3.9-1.8,6.8,2.7,3.9,6.7c3.8,4.2-6.2,8.9-8.4,1c-2.7,4.6-6.5,2.3-7.1-2.8"/>
<g>
	<path class="st7" d="M23.8,25.7c0,0-14.6,32.1-4.3,58.9l3.7,6.9c0,0,11-4.6,9.7-27.5C31.7,41,28,8.9,23.8,25.7z"/>
	<rect x="22.5" y="87.7" class="st10" width="1.2" height="9.9"/>
</g>
<path class="st4" d="M56.2,89.2c-1.4-1-2.3-1.6-1.7-4.5c0.9,0.4,1.9,0.1,2.8,0.6c0.1-3.9,1.6-4.5,3.8-1.7c1.2-2.4,1.2-0.7,2.9-1.9
	c0,1.8,1,2.8,0.7,4.9c3.3-1.5,5.8,2.3,3.3,5.7c3.2,3.5-5.2,7.5-7.1,0.8c-2.3,3.9-5.5,1.9-5.9-2.4"/>
</svg>
