<?xml version="1.0" encoding="utf-8"?>
<!-- Generator: Adobe Illustrator 21.1.0, SVG Export Plug-In . SVG Version: 6.00 Build 0)  -->
<svg version="1.1" id="Слой_1" xmlns="http://www.w3.org/2000/svg" xmlns:xlink="http://www.w3.org/1999/xlink" x="0px" y="0px"
	 viewBox="0 0 452 561" style="enable-background:new 0 0 452 561;" xml:space="preserve">
<style type="text/css">
	.st0{fill:#EAB77D;}
	.st1{fill:#F2D0AB;}
	.st2{fill:#BD5426;}
	.st3{fill:#CE7F5D;}
	.st4{fill:#FFFFFF;}
	.st5{fill:#A35920;}
	.st6{fill:#4E2B0A;}
	.st7{fill:#67482C;}
	.st8{fill:#E4A256;}
	.st9{fill:#EBB980;}
	.st10{fill:#D35D2A;}
	.st11{fill:#DE855F;}
	.st12{fill:#5B390D;}
	.st13{fill:#DA7C38;}
	.st14{fill:#DF8F56;}
	.st15{fill:#765834;}
	.st16{fill:#968064;}
	.st17{fill:#8B5717;}
	.st18{fill:#A88151;}
	.st19{fill:#38271B;}
</style>
<g>
	<g>
		<g>
			<path class="st0" d="M368.1,550c-0.7,6.8-3.7,12.1-6.7,11.8l-46.9-4.9c-3-0.3-4.8-6.1-4.1-12.9l35.1-339
				c0.7-6.8,3.7-12.1,6.7-11.8l46.9,4.9c3,0.3,4.8,6.1,4.1,12.9L368.1,550z"/>
			<path class="st1" d="M384.2,247.2c-0.3,3-3,5.2-6,4.9l-25.7-2.7c-3-0.3-5.2-3-4.9-6l3.6-34.7c0.3-3,3-5.2,6-4.9l25.7,2.7
				c3,0.3,5.2,3,4.8,6L384.2,247.2z"/>
		</g>
		<g>
			<path class="st2" d="M422.2,210.6c0,0-11.3-18.6-17.3-33.7c-5.9-15.1-20.3-67.8-20.3-67.8s-24.9,48.7-33.8,62.2
				c-8.9,13.6-23.8,29.4-23.8,29.4s22.9-3.2,48.2-0.6C400.4,202.7,422.2,210.6,422.2,210.6z"/>
			<path class="st3" d="M390.5,155.9c3.1-8-6.6-45.1-6.6-45.1s-23.9,46.7-32.4,59.7c-4.4,6.6-10.2,13.8-14.9,19.3
				C372.6,187.9,386.4,166.4,390.5,155.9z"/>
			<g>
				
					<ellipse transform="matrix(0.1027 -0.9947 0.9947 0.1027 193.0242 502.6043)" class="st4" cx="375.1" cy="144.3" rx="1.5" ry="1.5"/>
				<path class="st4" d="M373.1,153.2c-0.2,2.1-2.1,3.6-4.2,3.4c-2.1-0.2-3.6-2.1-3.4-4.2c0.2-2.1,2.1-3.6,4.2-3.4
					C371.8,149.2,373.3,151.1,373.1,153.2z"/>
			</g>
		</g>
		<path class="st5" d="M378.9,225.7c0.5-4.8-1.9-8.9-5.4-9.3c-3.5-0.4-6.7,3.2-7.2,8l-1.7,16l12.6,1.3L378.9,225.7z"/>
		<g>
			<path class="st6" d="M402.1,274.1c-0.3,3-3,5.2-6,4.9l-57.7-6c-3-0.3-5.2-3-4.8-6l0.7-7.2c0.3-3,3-5.2,6-4.9l57.7,6
				c3,0.3,5.2,3,4.9,6L402.1,274.1z"/>
			<path class="st7" d="M386.9,266.6c-0.3,2.5-2.5,4.3-5,4l-41.1-4.3c-2.5-0.3-4.3-2.5-4-5l0,0c0.3-2.5,2.5-4.3,5-4l41.1,4.3
				C385.4,261.9,387.2,264.1,386.9,266.6L386.9,266.6z"/>
		</g>
	</g>
	<g>
		<g>
			<path class="st8" d="M427.7,559.3c-0.1,1.3-1.2,2.3-2.5,2.2l-57.4-3.7c-1.3-0.1-2.3-1.2-2.2-2.5l8-125c0.1-1.3,1.2-2.3,2.5-2.2
				l57.4,3.7c1.3,0.1,2.3,1.2,2.2,2.5L427.7,559.3z"/>
			<path class="st9" d="M422.7,517.8c-0.4,6.1-5.6,10.6-11.7,10.3l-25.5-1.6c-6.1-0.4-10.6-5.6-10.3-11.7l3-47.5
				c0.4-6,5.6-10.6,11.7-10.2l25.5,1.6c6,0.4,10.6,5.6,10.2,11.7L422.7,517.8z"/>
		</g>
		<g>
			<polygon class="st8" points="434.8,433.7 374.4,429.8 375.2,380.7 440.4,384.8 			"/>
			<path class="st9" d="M424.2,421.6c-0.1,1.3-1.2,2.3-2.5,2.2l-34.7-2.2c-1.3-0.1-2.3-1.2-2.2-2.5l-1.1-21.1
				c0.1-1.3,1.2-2.3,2.5-2.2l37.1,2.4c1.3,0.1,2.3,1.2,2.2,2.5L424.2,421.6z"/>
		</g>
		<g>
			<path class="st10" d="M444.6,449.3c-0.2,2.6-2.4,4.6-5.1,4.5l-72.3-4.6c-2.6-0.2-4.6-2.4-4.5-5.1l1-15c0.2-2.6,2.5-4.6,5.1-4.5
				l72.3,4.6c2.6,0.2,4.6,2.5,4.5,5.1L444.6,449.3z"/>
			<path class="st11" d="M423.7,439c-0.2,2.6-2.5,4.6-5.1,4.5l-46.6-3c-2.6-0.2-4.6-2.4-4.5-5.1l0.2-3c0.2-2.6,2.5-4.6,5.1-4.5
				l46.6,3c2.6,0.2,4.7,2.4,4.5,5.1L423.7,439z"/>
		</g>
		<g>
			<g>
				<polygon class="st2" points="412,317.6 362.6,387.4 452,393.1 				"/>
				<path class="st3" d="M411.1,320.1L371.8,375c0,0,50.4-12.7,51-22.6C423.5,342.6,415.6,327.1,411.1,320.1z"/>
				<g>
					<path class="st4" d="M400,347.1c-0.1,0.6-0.7,1-1.3,0.9c-0.6-0.1-1-0.7-0.9-1.4c0.1-0.6,0.7-1,1.4-0.9
						C399.8,345.9,400.1,346.5,400,347.1z"/>
					<path class="st4" d="M396.9,357.2c-0.4,1.6-1.9,2.6-3.5,2.3c-1.6-0.4-2.6-1.9-2.3-3.5c0.3-1.6,1.9-2.6,3.5-2.3
						C396.2,354,397.2,355.6,396.9,357.2z"/>
				</g>
			</g>
			<path class="st6" d="M412,403.9c0.3-4.5-2-8.4-5.1-8.6c-3.1-0.2-5.8,3.3-6.1,7.9l-1,15.3l11.2,0.7L412,403.9z"/>
			<path class="st6" d="M407.6,473.8c0.3-4.6-2-8.4-5.1-8.6c-3.1-0.2-5.8,3.3-6.1,7.9l-1,15.3l11.2,0.7L407.6,473.8z"/>
		</g>
	</g>
	<g>
		<path class="st12" d="M244.8,557c0,2.6-2.1,4.8-4.8,4.8h-86.9c-2.6,0-4.8-2.1-4.8-4.8V262.8c0-2.6,2.1-4.8,4.8-4.8H240
			c2.6,0,4.8,2.1,4.8,4.8V557z"/>
		<g>
			<g>
				<polygon class="st2" points="197,124.1 157.4,244.7 236.6,244.7 				"/>
				<path class="st3" d="M196.4,128.3l-31.6,95c0,0,43.8-26.4,43.8-42.8C208.6,164.2,200.8,139.4,196.4,128.3z"/>
				<g>
					<ellipse class="st4" cx="190.5" cy="160.5" rx="1" ry="1"/>
					<path class="st4" d="M190.7,169.8c0,1.4-1.2,2.6-2.6,2.6c-1.4,0-2.6-1.2-2.6-2.6c0-1.4,1.2-2.6,2.6-2.6
						C189.5,167.2,190.7,168.3,190.7,169.8z"/>
				</g>
			</g>
			<g>
				<path class="st13" d="M248.9,267.4c0,4-3.2,7.2-7.2,7.2h-90.3c-4,0-7.2-3.2-7.2-7.2V245c0-4,3.2-7.2,7.2-7.2h90.3
					c4,0,7.2,3.2,7.2,7.2V267.4z"/>
				<path class="st14" d="M216.9,252.2c0,2.6-2.2,4.8-4.8,4.8h-48.7c-2.7,0-4.8-2.1-4.8-4.8v-5.6c0-2.6,2.1-4.8,4.8-4.8h48.7
					c2.6,0,4.8,2.1,4.8,4.8V252.2z"/>
			</g>
		</g>
	</g>
	<g>
		<polygon class="st8" points="77.9,447.3 33,447.3 22.2,561.8 88.7,561.8 		"/>
		<path class="st9" d="M65.1,454.5c0,0-27.2-0.8-28.8,1.2c-1.6,2-8.4,94.3-6.8,95.9c1.6,1.6,39.1-8,39.9-22
			C70.3,515.6,70.7,454.5,65.1,454.5z"/>
		<g>
			<rect x="32.4" y="400.6" class="st8" width="46.1" height="33"/>
			<path class="st9" d="M65.5,423.4c0,1.3-1.1,2.4-2.4,2.4H38.7c-1.3,0-2.4-1.1-2.4-2.4v-11.6c0-1.3,1.1-2.4,2.4-2.4h24.4
				c1.3,0,2.4,1.1,2.4,2.4V423.4z"/>
		</g>
		<polygon class="st8" points="55.4,350.7 26.5,357.5 34.3,394.6 76.6,394.6 84.4,357.5 		"/>
		<path class="st9" d="M31.9,363.1c0,0,29.6-4,37.2,0c7.6,4-3.2,23.6-6,24.4c-2.8,0.8-21.6,2-25.6-2.4
			C33.5,380.6,29.9,364.7,31.9,363.1z"/>
		<path class="st5" d="M62.4,380.2c0,1.3-1.1,2.4-2.4,2.4h-9.2c-1.3,0-2.4-1.1-2.4-2.4V369c0-1.3,1.1-2.4,2.4-2.4H60
			c1.3,0,2.4,1.1,2.4,2.4V380.2z"/>
		<path class="st5" d="M62.4,483.1c0,1.5-1.1,2.7-2.4,2.7h-9.2c-1.3,0-2.4-1.2-2.4-2.7v-12.7c0-1.5,1.1-2.7,2.4-2.7H60
			c1.3,0,2.4,1.2,2.4,2.7V483.1z"/>
		<path class="st5" d="M62.4,532.5c0,1.5-1.1,2.7-2.4,2.7h-9.2c-1.3,0-2.4-1.2-2.4-2.7v-12.7c0-1.5,1.1-2.7,2.4-2.7H60
			c1.3,0,2.4,1.2,2.4,2.7V532.5z"/>
		<g>
			<path class="st10" d="M85.4,402.5c0,2.3-1.9,4.1-4.1,4.1H29.6c-2.3,0-4.1-1.8-4.1-4.1v-6.7c0-2.3,1.8-4.1,4.1-4.1h51.6
				c2.3,0,4.1,1.8,4.1,4.1V402.5z"/>
			<path class="st11" d="M73,397.6c0,2.1-1.7,3.9-3.9,3.9H31.9c-2.1,0-3.9-1.7-3.9-3.9l0,0c0-2.1,1.7-3.9,3.9-3.9h37.2
				C71.3,393.7,73,395.4,73,397.6L73,397.6z"/>
		</g>
		<g>
			<path class="st10" d="M94.7,445.1c0,3-2.4,5.4-5.4,5.4H21.6c-3,0-5.4-2.4-5.4-5.4v-8.8c0-3,2.4-5.4,5.4-5.4h67.7
				c3,0,5.4,2.4,5.4,5.4V445.1z"/>
			<path class="st11" d="M78.4,438.6c0,2.8-2.3,5.1-5.1,5.1H24.7c-2.8,0-5.1-2.3-5.1-5.1l0,0c0-2.8,2.3-5.1,5.1-5.1h48.7
				C76.2,433.6,78.4,435.8,78.4,438.6L78.4,438.6z"/>
		</g>
		<g>
			<path class="st2" d="M111,367c0,0-16.2-14.4-30-28.8c-13.8-14.4-25.6-61.4-25.6-61.4s-11.8,47-25.6,61.4
				C16,352.7-0.1,367-0.1,367s36.3-8.8,55.6-8.8C74.7,358.3,111,367,111,367z"/>
			<path class="st3" d="M56.5,321.8c3-12-1-44.9-1-44.9s-11.8,47-25.6,61.4c-9.9,10.3-21,20.7-26.5,25.7
				C32.4,355.4,52.9,336.2,56.5,321.8z"/>
			<ellipse class="st4" cx="50.4" cy="307.9" rx="1.6" ry="1.6"/>
			<path class="st4" d="M50,318.5c0,1.7-1.3,3-3,3c-1.6,0-3-1.3-3-3c0-1.7,1.3-3,3-3C48.6,315.5,50,316.9,50,318.5z"/>
		</g>
	</g>
	<g>
		<g>
			<polygon class="st0" points="156,561.8 85.3,561.8 90.1,266.4 151.2,266.4 			"/>
			<path class="st1" d="M133.4,283.4c0,0-28.8-3.2-33.5,4.8c-4.8,8-12.8,246-2.4,244.4c10.4-1.6,39.2-80.7,39.9-128.6
				C138.2,355.3,138.2,285,133.4,283.4z"/>
		</g>
		<path class="st5" d="M127.5,456.7c0-4.2-3.1-7.6-6.9-7.6c-3.8,0-6.9,3.4-6.9,7.6v14h13.7V456.7z"/>
		<path class="st5" d="M127.5,391.4c0-4.2-3.1-7.5-6.9-7.5c-3.8,0-6.9,3.4-6.9,7.5v14h13.7V391.4z"/>
		<path class="st5" d="M127.5,326.1c0-4.2-3.1-7.6-6.9-7.6c-3.8,0-6.9,3.4-6.9,7.6v14h13.7V326.1z"/>
		<g>
			<g>
				<rect x="94.6" y="186.1" class="st0" width="52.1" height="72.5"/>
				<path class="st1" d="M131.4,232.6c0,4-3.2,7.2-7.2,7.2h-16.8c-4,0-7.2-3.2-7.2-7.2v-31.2c0-4,3.2-7.2,7.2-7.2h16.8
					c4,0,7.2,3.2,7.2,7.2V232.6z"/>
			</g>
			<g>
				<g>
					<g>
						<polygon class="st0" points="150.9,175.9 90.4,175.9 88,126.8 153.3,126.8 						"/>
						<path class="st1" d="M139.5,164.5c0,1.3-1.1,2.4-2.4,2.4h-34.7c-1.3,0-2.4-1.1-2.4-2.4l-2.4-21c0-1.3,1.1-2.4,2.4-2.4h37.1
							c1.3,0,2.4,1.1,2.4,2.4V164.5z"/>
					</g>
					<path class="st5" d="M127.3,160.9c0,1.3-1.1,2.4-2.4,2.4h-9.2c-1.3,0-2.4-1.1-2.4-2.4v-11.2c0-1.3,1.1-2.4,2.4-2.4h9.2
						c1.3,0,2.4,1.1,2.4,2.4V160.9z"/>
				</g>
				<g>
					<polygon class="st2" points="120.6,0.2 75.8,136.7 165.4,136.7 					"/>
					<path class="st3" d="M119.9,5L84.2,112.5c0,0,49.5-29.9,49.5-48.4C133.7,45.6,124.9,17.6,119.9,5z"/>
					<g>
						<circle class="st4" cx="113.3" cy="41.4" r="1.1"/>
						<circle class="st4" cx="110.5" cy="51.9" r="3"/>
					</g>
				</g>
				<g>
					<path class="st10" d="M161.7,186.1c0,2.6-2.1,4.8-4.8,4.8H84.4c-2.6,0-4.8-2.1-4.8-4.8v-15c0-2.6,2.1-4.8,4.8-4.8h72.5
						c2.6,0,4.8,2.1,4.8,4.8V186.1z"/>
					<path class="st11" d="M140.1,177.1c0,2.6-2.1,4.8-4.8,4.8H88.6c-2.6,0-4.8-2.1-4.8-4.8v-3c0-2.7,2.2-4.8,4.8-4.8h46.7
						c2.6,0,4.8,2.1,4.8,4.8V177.1z"/>
				</g>
			</g>
			<g>
				<path class="st10" d="M162.9,268.2c0,4-3.2,7.2-7.2,7.2H85.6c-4,0-7.2-3.2-7.2-7.2v-12.6c0-4,3.2-7.2,7.2-7.2h70.1
					c4,0,7.2,3.2,7.2,7.2V268.2z"/>
				<path class="st11" d="M135.3,258c0,4-3.2,7.2-7.2,7.2H89.2c-4,0-7.2-3.2-7.2-7.2l0,0c0-4,3.2-7.2,7.2-7.2h38.9
					C132.1,250.8,135.3,254,135.3,258L135.3,258z"/>
			</g>
		</g>
	</g>
	<g>
		<g>
			<g>
				<path class="st15" d="M369.7,557c0,2.6-2.1,4.8-4.8,4.8H202c-2.7,0-4.8-2.1-4.8-4.8v-47.1c0-2.6,2.1-4.8,4.8-4.8h163
					c2.6,0,4.8,2.1,4.8,4.8V557z"/>
				<path class="st6" d="M283.4,524.9c-8.9,0-16.1,5.4-16.1,12.1v24.9c4.7-0.2,10.9-0.4,16.1-0.4c5.1,0,11.4,0.3,16.1,0.4v-24.9
					C299.5,530.3,292.3,524.9,283.4,524.9z"/>
			</g>
			<path class="st16" d="M280.3,520h-71.9v34.2h52.1C260.5,554.2,258.1,520.6,280.3,520z"/>
		</g>
		<g>
			<g>
				<polygon class="st15" points="283.4,215.5 201.6,306.9 201.6,509.8 365.3,509.8 365.3,306.9 				"/>
				<path class="st16" d="M338.6,478.1c0,2.6-2.1,4.8-4.8,4.8H217.5c-2.6,0-4.8-2.1-4.8-4.8V318.7c0-2.6,2.2-4.8,4.8-4.8h116.2
					c2.6,0,4.8,2.1,4.8,4.8V478.1z"/>
				<polygon class="st16" points="284.6,237.8 246.3,283.4 321.2,283.4 				"/>
			</g>
			<g>
				<path class="st17" d="M360.5,297.3c0,2.6-2.1,4.8-4.8,4.8H211.1c-2.6,0-4.8-2.1-4.8-4.8v-4c0-2.6,2.1-4.8,4.8-4.8h144.6
					c2.6,0,4.8,2.1,4.8,4.8V297.3z"/>
				<path class="st18" d="M325.4,293.9c0,1.8-1.5,3.3-3.3,3.3h-90.5c-1.8,0-3.3-1.5-3.3-3.3l0,0c0-1.8,1.5-3.3,3.3-3.3h90.5
					C323.9,290.6,325.4,292,325.4,293.9L325.4,293.9z"/>
			</g>
			<path class="st19" d="M283.4,227.3l88,100.4h36.2L297,201.5c-2.8-3.2-8-5.2-13.6-5.2c-5.6,0-10.8,2-13.6,5.2L159.2,327.7h36.2
				L283.4,227.3z"/>
			<g>
				<g>
					<path class="st6" d="M327,351.1c0-4.3-3.4-7.8-7.6-7.8c-4.2,0-7.6,3.5-7.6,7.8v14.4H327V351.1z"/>
					<path class="st6" d="M291,351.1c0-4.3-3.4-7.8-7.6-7.8c-4.2,0-7.6,3.5-7.6,7.8v14.4H291V351.1z"/>
					<path class="st6" d="M255.1,351.1c0-4.3-3.4-7.8-7.6-7.8c-4.2,0-7.6,3.5-7.6,7.8v14.4h15.1V351.1z"/>
				</g>
				<g>
					<path class="st6" d="M327,402.8c0-4.3-3.4-7.8-7.6-7.8c-4.2,0-7.6,3.5-7.6,7.8v14.4H327V402.8z"/>
					<path class="st6" d="M291,402.8c0-4.3-3.4-7.8-7.6-7.8c-4.2,0-7.6,3.5-7.6,7.8v14.4H291V402.8z"/>
					<path class="st6" d="M255.1,402.8c0-4.3-3.4-7.8-7.6-7.8c-4.2,0-7.6,3.5-7.6,7.8v14.4h15.1V402.8z"/>
				</g>
				<g>
					<path class="st6" d="M327,454.6c0-4.3-3.4-7.8-7.6-7.8c-4.2,0-7.6,3.5-7.6,7.8V469H327V454.6z"/>
					<path class="st6" d="M291,454.6c0-4.3-3.4-7.8-7.6-7.8c-4.2,0-7.6,3.5-7.6,7.8V469H291V454.6z"/>
					<path class="st6" d="M255.1,454.6c0-4.3-3.4-7.8-7.6-7.8c-4.2,0-7.6,3.5-7.6,7.8V469h15.1V454.6z"/>
				</g>
			</g>
			<path class="st6" d="M298.3,279.5c0-13.2-6.7-24-14.9-24c-8.2,0-14.9,10.7-14.9,24v6.8h29.8V279.5z"/>
		</g>
		<g>
			<path class="st17" d="M376.1,509.8c0,2.6-2.1,4.8-4.8,4.8H195.6c-2.7,0-4.8-2.1-4.8-4.8v-15.2c0-2.6,2.1-4.8,4.8-4.8h175.7
				c2.6,0,4.8,2.1,4.8,4.8V509.8z"/>
			<path class="st18" d="M358.5,501.9c0,2.6-2.1,4.8-4.8,4.8h-155c-2.6,0-4.8-2.1-4.8-4.8v-6.4c0-2.6,2.1-4.8,4.8-4.8h155
				c2.6,0,4.8,2.1,4.8,4.8V501.9z"/>
		</g>
	</g>
</g>
</svg>
