<?xml version="1.0" encoding="utf-8"?>
<!-- Generator: Adobe Illustrator 21.1.0, SVG Export Plug-In . SVG Version: 6.00 Build 0)  -->
<svg version="1.1" id="Слой_1" xmlns="http://www.w3.org/2000/svg" xmlns:xlink="http://www.w3.org/1999/xlink" x="0px" y="0px"
	 viewBox="0 0 475 622" style="enable-background:new 0 0 475 622;" xml:space="preserve">
<style type="text/css">
	.st0{fill:#BC986E;}
	.st1{fill:#CAAF8D;}
	.st2{fill:#DC8332;}
	.st3{fill:#E5A265;}
	.st4{fill:#38271B;}
	.st5{fill:#352E6E;}
	.st6{fill:#575087;}
	.st7{fill:#FFFFFF;}
	.st8{fill:#422C2D;}
	.st9{fill:#544142;}
	.st10{fill:#AE8350;}
	.st11{fill:#1F165E;}
	.st12{fill:#3C3573;}
	.st13{fill:#4E2B0A;}
	.st14{fill:#8A6D44;}
	.st15{fill:#9B815F;}
	.st16{fill:#5973A4;}
	.st17{fill:#7187B1;}
	.st18{fill:#C1A078;}
	.st19{fill:#DBC7B0;}
	.st20{fill:#C3A37D;}
</style>
<g>
	<g>
		<path class="st0" d="M237.9,229.3c-12.7,0-39.8,10.5-50.3,22.1c0,0,5.9,7.2,10.1,38.2c1.4,10.4,2.6,23.4,3.3,39.6h73.7
			c0.7-16.3,1.9-29.3,3.3-39.6c4.2-30.9,10.1-38.2,10.1-38.2C277.7,239.8,250.5,229.3,237.9,229.3z"/>
		<path class="st1" d="M274.1,257.1c0,0-35.3-8-61.5-2.2c-26.2,5.9-18,7.3-13.1,28.5c4.9,21.2-2.5,30.7,13.9,27.8
			c16.4-2.9,34.1-0.8,45.9,0C272.6,312.1,274.1,257.1,274.1,257.1z"/>
	</g>
	<g>
		<path class="st2" d="M268.4,21.4c0,0-25-13.3-28.9-19.5v32.4C239.6,34.3,246.6,26.1,268.4,21.4z"/>
		<path class="st3" d="M262.7,18.8c0,0-19.6-10.2-22.2-15.2v19.6C240.5,23.2,249.3,17.9,262.7,18.8z"/>
	</g>
	<g>
		<path class="st4" d="M237.9,50.3c-1.3,0-2.3-1.1-2.3-2.3V2.3c0-1.3,1-2.3,2.3-2.3s2.3,1,2.3,2.3v45.6
			C240.2,49.2,239.2,50.3,237.9,50.3L237.9,50.3z"/>
	</g>
	<g>
		<path class="st5" d="M305.7,266.6c0,0-23.2-37.7-34.5-74.3c-17.5-56.8-33.3-155.6-33.3-155.6s-15.8,98.9-33.3,155.6
			c-11.3,36.6-34.5,74.3-34.5,74.3s23-20.3,67.9-20.3C282.7,246.2,305.7,266.6,305.7,266.6z"/>
		<path class="st6" d="M247.5,161.3c4.7-21.1-9.6-121.1-9.6-121.1s-15.6,98.9-32.8,155.6c-5.6,18.3-14.1,37-21.2,51
			C228,237.4,241,190.7,247.5,161.3z"/>
		<circle class="st7" cx="228.2" cy="118.5" r="1.5"/>
		<circle class="st7" cx="225.9" cy="132" r="3.8"/>
	</g>
	<g>
		<g>
			<path class="st8" d="M234.2,304.2c0,1.3-1,2.3-2.3,2.3H228c-1.3,0-2.3-1-2.3-2.3v-46c0-1.3,1-2.3,2.3-2.3h3.9
				c1.3,0,2.3,1,2.3,2.3V304.2z"/>
			<path class="st9" d="M231.9,299.5c0,1.3-1,2.3-2.3,2.3h-0.4c-1.3,0-2.3-1-2.3-2.3v-39.4c0-1.3,1-2.3,2.3-2.3h0.4
				c1.3,0,2.3,1,2.3,2.3V299.5z"/>
		</g>
		<g>
			<path class="st8" d="M220.1,305.4c0.1,1.3-0.9,2.4-2.2,2.5l-3.9,0.3c-1.3,0.1-2.4-0.9-2.5-2.2l-3.4-45.9
				c-0.1-1.3,0.9-2.4,2.2-2.5l3.9-0.3c1.3-0.1,2.4,0.9,2.5,2.2L220.1,305.4z"/>
			<path class="st9" d="M217.4,300.9c0.1,1.3-0.9,2.4-2.2,2.5l-0.4,0c-1.3,0.1-2.4-0.9-2.5-2.2l-2.9-39.3c-0.1-1.3,0.9-2.4,2.2-2.5
				l0.4,0c1.3-0.1,2.4,0.9,2.5,2.2L217.4,300.9z"/>
		</g>
		<g>
			<path class="st8" d="M255.7,305.4c-0.1,1.3,0.9,2.4,2.2,2.5l3.9,0.3c1.3,0.1,2.4-0.9,2.5-2.2l3.4-45.9c0.1-1.3-0.9-2.4-2.2-2.5
				l-3.9-0.3c-1.3-0.1-2.4,0.9-2.5,2.2L255.7,305.4z"/>
			<path class="st9" d="M258.4,300.9c-0.1,1.3,0.9,2.4,2.2,2.5l0.4,0c1.3,0.1,2.4-0.9,2.5-2.2l2.9-39.3c0.1-1.3-0.9-2.4-2.2-2.5
				l-0.4,0c-1.3-0.1-2.4,0.9-2.5,2.2L258.4,300.9z"/>
		</g>
		<g>
			<path class="st8" d="M250.1,304.2c0,1.3-1,2.3-2.3,2.3h-3.9c-1.3,0-2.3-1-2.3-2.3v-46c0-1.3,1-2.3,2.3-2.3h3.9
				c1.3,0,2.3,1,2.3,2.3V304.2z"/>
			<path class="st9" d="M247.7,299.5c0,1.3-1,2.3-2.3,2.3H245c-1.3,0-2.3-1-2.3-2.3v-39.4c0-1.3,1-2.3,2.3-2.3h0.4
				c1.3,0,2.3,1,2.3,2.3V299.5z"/>
		</g>
	</g>
	<g>
		<g>
			<g>
				<path class="st10" d="M181.4,415.4c0.1,1.3-0.8,2.4-2.1,2.6l-48.9,4.9c-1.3,0.1-2.4-0.8-2.6-2.1l-11.7-115.8
					c-0.1-1.3,0.8-2.4,2.1-2.6l48.9-4.9c1.3-0.1,2.4,0.8,2.6,2.1L181.4,415.4z"/>
				<path class="st0" d="M168.9,376.7c0.8,7.7-4.8,14.6-12.6,15.4l-13.4,1.4c-7.7,0.8-14.6-4.8-15.4-12.6l-4.3-42.5
					c-0.8-7.7,4.8-14.6,12.6-15.4l13.4-1.3c7.7-0.8,14.6,4.8,15.4,12.6L168.9,376.7z"/>
			</g>
			<g>
				<path class="st11" d="M198.2,321.4c0,0-20.4-21.6-31.5-43.4c-17.2-33.8-35.6-93.9-35.6-93.9s-6.1,62.5-16.2,99.1
					c-6.5,23.6-22.2,48.8-22.2,48.8s16.6-14.4,51.5-17.9C179,310.6,198.2,321.4,198.2,321.4z"/>
				<path class="st12" d="M146.3,260.6c2.3-13.4-15-74.3-15-74.3s-5.9,62.5-15.8,99.1c-3.2,11.8-8.7,24-13.3,33.3
					C136,309.4,143.1,279.4,146.3,260.6z"/>
				
					<ellipse transform="matrix(0.9949 -0.1011 0.1011 0.9949 -24.4595 14.4145)" class="st7" cx="130" cy="248.5" rx="1.1" ry="1.1"/>
				<ellipse transform="matrix(0.9949 -0.1005 0.1005 0.9949 -25.3799 14.2911)" class="st7" cx="129.2" cy="259.1" rx="3" ry="3"/>
			</g>
			<path class="st13" d="M152,337.7c-0.5-4.4-3.2-7.8-6.2-7.5c-3,0.3-5.1,4.1-4.6,8.6l1.5,14.9l10.9-1.1L152,337.7z"/>
		</g>
		<g>
			<g>
				<path class="st10" d="M294.3,415.4c-0.1,1.3,0.8,2.4,2.1,2.6l48.9,4.9c1.3,0.1,2.4-0.8,2.6-2.1l11.7-115.8
					c0.1-1.3-0.8-2.4-2.1-2.6l-48.9-4.9c-1.3-0.1-2.4,0.8-2.6,2.1L294.3,415.4z"/>
				<path class="st0" d="M306.8,376.7c-0.8,7.7,4.8,14.6,12.6,15.4l13.4,1.4c7.7,0.8,14.6-4.8,15.4-12.6l4.3-42.5
					c0.8-7.7-4.8-14.6-12.6-15.4l-13.4-1.3c-7.7-0.8-14.6,4.8-15.4,12.6L306.8,376.7z"/>
			</g>
			<g>
				<path class="st11" d="M277.6,321.4c0,0,20.4-21.6,31.5-43.4c17.2-33.8,35.6-93.9,35.6-93.9s6.1,62.5,16.2,99.1
					C367.4,306.8,383,332,383,332s-16.6-14.4-51.5-17.9C296.7,310.6,277.6,321.4,277.6,321.4z"/>
				<path class="st12" d="M329.4,260.6c-2.3-13.4,15-74.3,15-74.3s5.9,62.5,15.8,99.1c3.2,11.8,8.7,24,13.3,33.3
					C339.8,309.4,332.6,279.4,329.4,260.6z"/>
				
					<ellipse transform="matrix(0.1012 -0.9949 0.9949 0.1012 63.5424 567.3386)" class="st7" cx="345.8" cy="248.5" rx="1.1" ry="1.1"/>
				<ellipse transform="matrix(0.1005 -0.9949 0.9949 0.1005 53.8788 577.8781)" class="st7" cx="346.5" cy="259.1" rx="3" ry="3"/>
			</g>
			<path class="st13" d="M323.7,337.7c0.4-4.4,3.2-7.8,6.2-7.5c3,0.3,5.1,4.1,4.6,8.6l-1.5,14.9l-10.9-1.1L323.7,337.7z"/>
		</g>
	</g>
	<g>
		<g>
			<path class="st14" d="M256.6,396.4c0,0,31,2.9,33.9-1.2c2.9-4.1-1.2-19.3,3.5-21.1c4.7-1.8,25.7-4.7,26.9,5.3
				c1.2,9.9-4.7,18.7-0.6,20.5c4.1,1.8,17.5,3.4,20.5,1.8c6.4-3.5-2.6-29.3,10.5-26.3c12.9,2.9,24.6-1.2,19.9,16.4
				c-4.2,15.9-4.1,18.1,6.4,18.7c10.5,0.6,23.4,3.5,23.4,3.5l-35.7,197.2l-94.8-9.9L256.6,396.4z"/>
			<path class="st15" d="M310.4,376.5c0,0-16.4-4.1-16.4,4.1c0,8.2,1.8,21.1-12.9,21.6c0,0-6.4,1.2-5.8,14
				c0.6,12.9-1.2,21.1,5.8,27.5c7,6.4,32.8,18.7,30.4,57.3c-2.3,38.6-11.1,77.8,0,79c11.1,1.2,31-2.9,43.9-58.5
				c12.9-55.6,22.8-93,11.7-98.3c-11.1-5.3-15.8-9.4-12.3-19.3c3.5-9.9,7.6-23.4,0.6-24c-5.2-0.4-9.4-2.3-9.4,13.5
				c0,12.3-2.9,16.4-14.6,16.4c-11.7,0-22.2-4.1-21.1-14C311.6,385.9,315.7,380.6,310.4,376.5z"/>
		</g>
		<g>
			<path class="st14" d="M219.1,396.4c0,0-31,2.9-33.9-1.2c-2.9-4.1,1.2-19.3-3.5-21.1c-4.7-1.8-25.7-4.7-26.9,5.3
				c-1.2,9.9,4.7,18.7,0.6,20.5c-4.1,1.8-17.5,3.4-20.5,1.8c-6.4-3.5,2.6-29.3-10.5-26.3c-12.9,2.9-24.6-1.2-19.9,16.4
				c4.2,15.9,4.1,18.1-6.4,18.7c-10.5,0.6-23.4,3.5-23.4,3.5l35.7,197.2l94.8-9.9L219.1,396.4z"/>
			<path class="st15" d="M165.3,376.5c0,0,16.4-4.1,16.4,4.1c0,8.2-1.8,21.1,12.9,21.6c0,0,6.4,1.2,5.8,14
				c-0.6,12.9,1.2,21.1-5.8,27.5c-7,6.4-32.8,18.7-30.4,57.3c2.3,38.6,11.1,77.8,0,79c-11.1,1.2-31-2.9-43.9-58.5
				c-12.9-55.6-22.8-93-11.7-98.3c11.1-5.3,15.8-9.4,12.3-19.3c-3.5-9.9-7.6-23.4-0.6-24c5.2-0.4,9.4-2.3,9.4,13.5
				c0,12.3,2.9,16.4,14.6,16.4c11.7,0,22.2-4.1,21.1-14C164.1,385.9,160.1,380.6,165.3,376.5z"/>
		</g>
	</g>
	<path class="st0" d="M271.8,560.1c0,1.3-1,2.3-2.3,2.3h-63.2c-1.3,0-2.3-1-2.3-2.3V339.3c0-1.3,1-2.3,2.3-2.3h63.2
		c1.3,0,2.3,1,2.3,2.3V560.1z"/>
	<g>
		<path class="st9" d="M246.3,361.8c0-4.7-3.8-8.5-8.5-8.5c-4.7,0-8.5,3.8-8.5,8.5v52.4h17V361.8z"/>
		<path class="st8" d="M241.7,354.3v52.9c0,1.3-1.1,2.3-2.3,2.3h-9.9v4.7h17v-52.4C246.3,358.5,244.4,355.7,241.7,354.3z"/>
	</g>
	<g>
		<path class="st16" d="M270.5,320.4c-13.9-5.3-26.5-6.2-32.7-6.2c-6.1,0-18.7,0.9-32.7,6.2c-21.6,8.2-24.6,17-24.6,17
			s5.8,19.9,14,19.9c8.2,0,21.6-8.7,43.2-8.8c21.6,0,35,8.8,43.2,8.8c8.2,0,14-19.9,14-19.9S292.2,328.6,270.5,320.4z"/>
		<path class="st17" d="M239.9,316.7c-11.4-0.6-33.2,1.8-52.5,15.8c-8.7,6.3,4.1,15.2,10.5,14c6.4-1.2,36.9-11.7,58.5-11.1
			C278.1,336,254.7,317.5,239.9,316.7z"/>
		<circle class="st7" cx="199" cy="329.9" r="1.6"/>
		<circle class="st7" cx="190.4" cy="336.6" r="2.7"/>
	</g>
	<g>
		<g>
			<g>
				<path class="st18" d="M237.9,487.1c-23.1,0-46.5,8.2-46.5,8.2s1.2,118.8,5.8,119.3c4,0.5,25.2-1.3,40.7-1.3
					c15.5,0,36.7,1.8,40.7,1.3c4.7-0.6,5.9-119.3,5.9-119.3S261,487.1,237.9,487.1z"/>
				<path class="st19" d="M268.2,499.6c0,0-16.4-4.7-46.3-1.7c-22.6,2.2-28.5,2.1-27.8,21.2c0.9,23.1-0.8,52.1,7.4,51.5
					c8.2-0.6,2.3-25.3,9.4-33.9c7.5-9.1,19.3-15.9,41.7-14C275,524.4,275.2,503.7,268.2,499.6z"/>
			</g>
			<path class="st13" d="M237.9,525.7c-16,0-29,13-29,29v59.7c8.4-0.4,19.7-1,29-1c9.2,0,20.5,0.6,29,1v-59.7
				C266.8,538.7,253.9,525.7,237.9,525.7z"/>
		</g>
		<g>
			<path class="st11" d="M324.2,509.3c0,0-13.5-9.4-32.2-26.9c-18.7-17.6-54.1-71.4-54.1-71.4s-35.4,53.9-54.1,71.4
				c-18.7,17.6-32.2,26.9-32.2,26.9s50.6-15.3,86.3-15.3C273.6,494,324.2,509.3,324.2,509.3z"/>
			<path class="st12" d="M261.5,454.7c1.6-9.4-23.8-40.8-23.8-40.8s-34.2,52-52.3,68.9c-2.4,2.2-4.6,4.3-6.8,6.2
				C236.1,483.6,260,464.1,261.5,454.7z"/>
			<ellipse class="st7" cx="222.5" cy="442.8" rx="1.5" ry="1.5"/>
			<circle class="st7" cx="216.1" cy="454.6" r="3.3"/>
		</g>
	</g>
	<g>
		<g>
			<g>
				<path class="st10" d="M29.2,383.1c0,0,36.3,236.7,42.3,238.7c3.5,1.2,46.1-4.3,49.2-6.4c5.3-3.5-19.8-241.7-19.8-241.7
					L29.2,383.1z"/>
				<path class="st20" d="M81.8,391.1c0,0-18.2-1-32.9,3.4c-14.8,4.4-9.7,25.7-5.4,49.1c4.3,23.3,26.4,155.2,26.4,155.2
					s27.9-15.2,28.3-113.2C98.5,387.5,94.7,396.5,81.8,391.1z"/>
			</g>
			<g>
				<path class="st16" d="M60.4,342.6c-15.9,2.1-45,20.6-45,20.6s5.6,32.2,18.8,29.1c8.3-2,15.9-5,31.7-7c15.8-2,23.9-1,32.5-1.2
					c13.6-0.3,10.8-32.9,10.8-32.9S76.3,340.6,60.4,342.6z"/>
				<path class="st17" d="M72.1,358.3c0,0-23.5,0.5-40.7,6.8c-17.3,6.4-3.2,22.3,1.7,21.2c4.9-1.1,24.5-9.3,40.3-8.4
					C89.1,378.8,92.1,358.8,72.1,358.3z"/>
			</g>
			<g>
				<path class="st2" d="M74.6,163.1c0,0-32.1-12.1-37.7-19l5,38.9C41.9,183,49,172.1,74.6,163.1z"/>
				<path class="st3" d="M67.3,160.8c0,0-25.2-9.3-29.1-14.8l3,23.6C41.3,169.6,51,161.9,67.3,160.8z"/>
			</g>
			<g>
				<path class="st4" d="M42.3,202.5c-1.6,0.2-3-0.9-3.2-2.4l-7.1-54.9c-0.2-1.6,0.9-3,2.5-3.2c1.6-0.2,3,0.9,3.2,2.5l7.1,54.9
					C45,200.9,43.9,202.3,42.3,202.5L42.3,202.5z"/>
			</g>
			<g>
				<path class="st11" d="M127.9,363c0,0-25.7-27.5-40.2-55.6c-22.4-43.5-47.5-121.2-47.5-121.2s-4.6,81.5-15.2,129.3
					c-6.8,30.8-24.7,64-24.7,64s19.5-19.2,61.7-24.6C104.1,349.4,127.9,363,127.9,363z"/>
				<path class="st12" d="M62.2,285.3c2.2-17.5-21.6-96.3-21.6-96.3s-4.3,81.5-14.7,129.2c-3.3,15.4-9.4,31.5-14.7,43.6
					C51.8,349,59.1,309.8,62.2,285.3z"/>
				
					<ellipse transform="matrix(0.9918 -0.1276 0.1276 0.9918 -33.3842 7.4004)" class="st7" cx="41.1" cy="264.3" rx="1.4" ry="1.4"/>
				
					<ellipse transform="matrix(0.9918 -0.1275 0.1275 0.9918 -35.0193 7.4283)" class="st7" cx="40.5" cy="277.2" rx="3.6" ry="3.6"/>
			</g>
			<g>
				<path class="st9" d="M79.7,411.8c-0.7-5.6-5.9-9.6-11.5-8.9c-5.6,0.7-9.6,5.9-8.9,11.5l8.1,63l20.4-2.6L79.7,411.8z"/>
				<path class="st8" d="M72.9,403.4l8.2,63.6c0.2,1.6-0.9,3-2.5,3.2l-12,1.5l0.7,5.6l20.4-2.6l-8.1-63
					C79.2,407.8,76.5,404.7,72.9,403.4z"/>
			</g>
		</g>
		<g>
			<g>
				<path class="st10" d="M446.5,383.1c0,0-36.3,236.7-42.3,238.7c-3.5,1.2-46.1-4.3-49.2-6.4c-5.3-3.5,19.8-241.7,19.8-241.7
					L446.5,383.1z"/>
				<path class="st20" d="M394,391.1c0,0,18.2-1,32.9,3.4c14.8,4.4,9.7,25.7,5.4,49.1c-4.3,23.3-26.4,155.2-26.4,155.2
					s-27.9-15.2-28.3-113.2C377.2,387.5,381.1,396.5,394,391.1z"/>
			</g>
			<g>
				<path class="st16" d="M415.3,342.6c15.9,2.1,45,20.6,45,20.6s-5.6,32.2-18.8,29.1c-8.3-2-15.9-5-31.7-7c-15.8-2-23.9-1-32.5-1.2
					c-13.6-0.3-10.8-32.9-10.8-32.9S399.4,340.6,415.3,342.6z"/>
				<path class="st17" d="M403.6,358.3c0,0,23.5,0.5,40.7,6.8c17.3,6.4,3.2,22.3-1.7,21.2c-4.9-1.1-24.5-9.3-40.3-8.4
					C386.6,378.8,383.6,358.8,403.6,358.3z"/>
			</g>
			<g>
				<path class="st2" d="M474.8,172.6c0,0-28-19.8-31.7-27.9l-5,38.9C438.1,183.6,447.8,174.9,474.8,172.6z"/>
				<path class="st3" d="M468.4,168.6c0,0-22-15.4-24.4-21.7l-3,23.6C440.9,170.5,452.3,165.5,468.4,168.6z"/>
			</g>
			<g>
				<path class="st4" d="M433.4,202.5c1.6,0.2,3-0.9,3.2-2.4l7.1-54.9c0.2-1.6-0.9-3-2.5-3.2c-1.6-0.2-3,0.9-3.2,2.5l-7.1,54.9
					C430.8,200.9,431.9,202.3,433.4,202.5L433.4,202.5z"/>
			</g>
			<g>
				<path class="st11" d="M347.9,363c0,0,25.7-27.5,40.2-55.6c22.4-43.5,47.5-121.2,47.5-121.2s4.6,81.5,15.2,129.3
					c6.8,30.8,24.7,64,24.7,64s-19.5-19.2-61.7-24.6C371.6,349.4,347.9,363,347.9,363z"/>
				<path class="st12" d="M413.5,285.3c-2.2-17.5,21.6-96.3,21.6-96.3s4.3,81.5,14.7,129.2c3.3,15.4,9.4,31.5,14.6,43.6
					C423.9,349,416.6,309.8,413.5,285.3z"/>
				
					<ellipse transform="matrix(0.1276 -0.9918 0.9918 0.1276 117.0606 661.6813)" class="st7" cx="434.7" cy="264.3" rx="1.4" ry="1.4"/>
				
					<ellipse transform="matrix(0.1275 -0.9918 0.9918 0.1275 104.7618 673.5458)" class="st7" cx="435.2" cy="277.2" rx="3.6" ry="3.6"/>
			</g>
			<g>
				<path class="st9" d="M396,411.8c0.7-5.6,5.9-9.6,11.5-8.9c5.6,0.7,9.6,5.9,8.9,11.5l-8.1,63l-20.4-2.6L396,411.8z"/>
				<path class="st8" d="M402.8,403.4l-8.2,63.6c-0.2,1.6,0.9,3,2.5,3.2l12,1.5l-0.7,5.6l-20.4-2.6l8.1-63
					C396.5,407.8,399.3,404.7,402.8,403.4z"/>
			</g>
		</g>
	</g>
</g>
</svg>
