<?xml version="1.0" encoding="utf-8"?>
<!-- Generator: Adobe Illustrator 21.1.0, SVG Export Plug-In . SVG Version: 6.00 Build 0)  -->
<svg version="1.1" id="Слой_1" xmlns="http://www.w3.org/2000/svg" xmlns:xlink="http://www.w3.org/1999/xlink" x="0px" y="0px"
	 viewBox="0 0 449 527" style="enable-background:new 0 0 449 527;" xml:space="preserve">
<style type="text/css">
	.st0{fill:#DD8D9A;}
	.st1{fill:#E5AAB4;}
	.st2{fill:#544142;}
	.st3{fill:#422C2D;}
	.st4{fill:#D56D97;}
	.st5{fill:#DD89AB;}
	.st6{fill:#6A0040;}
	.st7{fill:#883367;}
	.st8{fill:#FFFFFF;}
	.st9{fill:#74124E;}
	.st10{fill:#8F4070;}
	.st11{fill:#5B390D;}
	.st12{fill:#7C603E;}
	.st13{fill:#D97585;}
	.st14{fill:#DC8391;}
	.st15{fill:#4E2B0A;}
	.st16{fill:#67482C;}
	.st17{fill:#910A36;}
	.st18{fill:#A94062;}
	.st19{fill:#5F1705;}
	.st20{fill:#8F5D50;}
	.st21{fill:#8E406D;}
	.st22{fill:#954D77;}
	.st23{fill:#80265D;}
</style>
<g>
	<path class="st0" d="M413.2,458.9c0,1.2-1,2.1-2.2,2.1h-89.2c-1.2,0-2.1-1-2.1-2.1v-69.3c0-1.2,1-2.2,2.1-2.2H411
		c1.2,0,2.2,1,2.2,2.2V458.9z"/>
	<path class="st1" d="M363,412.4c0,0,0,7.9-3.1,10.8c-3.1,2.9-10.7,3.8-10.7,3.8v20.5h51.4V412L363,412.4z"/>
	<g>
		<g>
			<g>
				<rect x="343.5" y="272.1" class="st0" width="78.5" height="117.7"/>
				<path class="st1" d="M408,370.8c0,1.2-1,2.1-2.2,2.1h-52c-1.2,0-2.2-1-2.2-2.1v-88.1c0-1.2,1-2.1,2.2-2.1h52
					c1.2,0,2.2,1,2.2,2.1V370.8z"/>
			</g>
			<g>
				<g>
					<path class="st2" d="M376.8,318.8c0-4.4-3.2-8-7.2-8c-4,0-7.2,3.6-7.2,8V368h14.4V318.8z"/>
					<path class="st3" d="M372.8,311.7v49.7c0,1.2-0.9,2.2-2,2.2h-8.5v4.4h14.4v-49.2C376.8,315.7,375.2,313.1,372.8,311.7z"/>
				</g>
				<g>
					<path class="st2" d="M403.2,318.8c0-4.4-3.2-8-7.2-8c-4,0-7.2,3.6-7.2,8V368h14.4V318.8z"/>
					<path class="st3" d="M399.2,311.7v49.7c0,1.2-0.9,2.2-2,2.2h-8.5v4.4h14.4v-49.2C403.2,315.7,401.5,313.1,399.2,311.7z"/>
				</g>
			</g>
		</g>
		<g>
			<g>
				<path class="st4" d="M382.8,247.5c20.2,0,49.6,3.6,49.6,3.6s-0.7,24.4-5,26.2c-3.5,1.4-24.6-1.1-44.5-1.1
					c-19.9,0-41.1,2.5-44.5,1.1c-4.3-1.8-5-26.2-5-26.2S362.6,247.5,382.8,247.5z"/>
				<path class="st5" d="M376.8,255c0,0,39.8,0,48.7,1.8c9,1.8-0.4,17.6-3.9,17.6c-3.6,0-43-2.9-53-3.9
					C358.5,269.4,358.5,254.7,376.8,255z"/>
			</g>
			<g>
				<path class="st6" d="M448.7,254.9l-65.6-99.7l-0.3-0.5l-0.3,0.5l-65.6,99.7c0,0,32.4-2.2,65.9-2.2
					C416.3,252.6,448.7,254.9,448.7,254.9z"/>
				<path class="st7" d="M394.8,181.6c0.6-8.3-11.7-24.9-11.7-24.9l-0.3-0.5l-0.3,0.5L327,239.5
					C384.3,231.6,394.2,189.9,394.8,181.6z"/>
				<circle class="st8" cx="367.2" cy="188.2" r="1.6"/>
				<circle class="st8" cx="360" cy="202.7" r="4.3"/>
			</g>
		</g>
	</g>
	<g>
		<polygon class="st9" points="139.3,165.1 322.5,165.1 349.8,269 139.3,269 		"/>
		<polygon class="st10" points="203.6,166.6 321.5,166.6 334.7,217.6 238.3,171.9 203.6,171.9 		"/>
		<ellipse class="st8" cx="270.2" cy="171.4" rx="2.1" ry="2.2"/>
		<circle class="st8" cx="285" cy="179.2" r="4.6"/>
	</g>
	<g>
		<g>
			<rect x="28.7" y="421.8" class="st0" width="74.7" height="82.2"/>
			<path class="st1" d="M80.6,492.6c0,1.2-1,2.1-2.1,2.1H33c-1.2,0-2.1-1-2.1-2.1V441c0-1.2,1-2.1,2.1-2.1h45.5c1.2,0,2.1,1,2.1,2.1
				V492.6z"/>
		</g>
		<g>
			<g>
				<g>
					<rect x="26.8" y="280" class="st0" width="78.5" height="117.7"/>
					<path class="st1" d="M84.9,378.7c0,1.2-1,2.1-2.1,2.1h-52c-1.2,0-2.1-1-2.1-2.1v-88.1c0-1.2,1-2.2,2.1-2.2h52
						c1.2,0,2.1,1,2.1,2.2V378.7z"/>
				</g>
				<g>
					<g>
						<path class="st2" d="M60.1,326.7c0-4.4-3.2-8-7.2-8c-4,0-7.2,3.6-7.2,8v49.2h14.4V326.7z"/>
						<path class="st3" d="M56.1,319.6v49.7c0,1.2-0.9,2.2-2,2.2h-8.5v4.4h14.4v-49.2C60.1,323.6,58.5,320.9,56.1,319.6z"/>
					</g>
					<g>
						<path class="st2" d="M86.4,326.7c0-4.4-3.2-8-7.2-8c-4,0-7.2,3.6-7.2,8v49.2h14.4V326.7z"/>
						<path class="st3" d="M82.4,319.6v49.7c0,1.2-0.9,2.2-2,2.2H72v4.4h14.4v-49.2C86.4,323.6,84.8,320.9,82.4,319.6z"/>
					</g>
				</g>
			</g>
			<g>
				<g>
					<path class="st4" d="M66,255.4c-20.2,0-49.6,3.6-49.6,3.6s0.7,24.4,5,26.2c3.5,1.4,24.6-1.1,44.5-1.1c19.9,0,41.1,2.5,44.6,1.1
						c4.3-1.8,5-26.2,5-26.2S86.2,255.4,66,255.4z"/>
					<path class="st5" d="M72,262.9c0,0-39.8,0-48.7,1.8c-9,1.8,0.4,17.6,3.9,17.6c3.6,0,43-2.9,53-3.9
						C90.3,277.3,90.3,262.6,72,262.9z"/>
				</g>
				<g>
					<path class="st6" d="M132,262.8L66.4,163l-0.3-0.5l-0.3,0.5L0.1,262.8c0,0,32.4-2.2,65.9-2.2C99.5,260.5,132,262.8,132,262.8z"
						/>
					<path class="st7" d="M78.1,189.5c0.6-8.3-11.7-24.9-11.7-24.9l-0.3-0.5l-0.3,0.5l-55.5,82.8C67.6,239.4,77.4,197.8,78.1,189.5z
						"/>
					<ellipse class="st8" cx="50.5" cy="196.1" rx="1.6" ry="1.6"/>
					<circle class="st8" cx="43.3" cy="210.6" r="4.3"/>
				</g>
			</g>
		</g>
		<g>
			<path class="st4" d="M110.9,431c0,2.4-1.9,4.3-4.3,4.3H25.5c-2.4,0-4.3-1.9-4.3-4.3V396c0-2.4,1.9-4.3,4.3-4.3h81.2
				c2.4,0,4.3,1.9,4.3,4.3V431z"/>
			<path class="st5" d="M78.7,407.3c0,1.2-1,2.2-2.2,2.2H26c-1.2,0-2.1-1-2.1-2.2v-10c0-1.2,1-2.2,2.1-2.2h50.5c1.2,0,2.2,1,2.2,2.2
				V407.3z"/>
		</g>
	</g>
	<g>
		<g>
			<path class="st0" d="M206.7,117.1c0,0-26.7-6.8-50.7-6.8c-24,0-50.7,6.8-50.7,6.8s11.8,82.2,7.5,136.5l43.2-0.5l43.2,0.5
				C194.9,199.3,206.7,117.1,206.7,117.1z"/>
			<path class="st1" d="M187.1,133.6c0,0-16.8-5.4-39.4-3.9c-22.6,1.4-34.8,7.2-33.7,9c1.1,1.8,6.1,74.5,6.1,84.2
				c0,9.7,12.5,2.2,21.1-2.5c8.6-4.7,45.9-21.5,48.4-35.5C192.2,170.9,192.9,136.5,187.1,133.6z"/>
		</g>
		<g>
			<g>
				<path class="st11" d="M145.4,200.2c0,2.3-1.9,4.2-4.3,4.2h-5.4c-2.4,0-4.3-1.9-4.3-4.2v-51.4c0-2.3,1.9-4.2,4.3-4.2h5.4
					c2.4,0,4.3,1.9,4.3,4.2V200.2z"/>
				<path class="st12" d="M140,184.9c0,1.7-1.4,3.2-3.2,3.2l0,0c-1.8,0-3.2-1.4-3.2-3.2v-33.6c0-1.7,1.4-3.1,3.2-3.1l0,0
					c1.8,0,3.2,1.4,3.2,3.1V184.9z"/>
			</g>
			<g>
				<path class="st11" d="M180.5,200.2c0,2.3-1.9,4.2-4.3,4.2h-5.4c-2.4,0-4.3-1.9-4.3-4.2v-51.4c0-2.3,1.9-4.2,4.3-4.2h5.4
					c2.4,0,4.3,1.9,4.3,4.2V200.2z"/>
				<path class="st12" d="M175.1,184.9c0,1.7-1.4,3.2-3.2,3.2l0,0c-1.8,0-3.2-1.4-3.2-3.2v-33.6c0-1.7,1.4-3.1,3.2-3.1l0,0
					c1.8,0,3.2,1.4,3.2,3.1V184.9z"/>
			</g>
		</g>
		<g>
			<path class="st4" d="M156,95.3c-27.6,0-58.8,7.8-58.8,7.8s1.6,29,6.4,29c4.5,0,27.9-6.5,52.3-6.5c24.4,0,47.8,6.5,52.3,6.5
				c4.8,0,6.4-29,6.4-29S183.6,95.3,156,95.3z"/>
			<path class="st5" d="M179.3,106.5c-21.5-1.3-46.3-1.3-56.3,0.2c-10,1.4-18.1,2.4-20.1,5c-3.7,4.8,1.7,12.6,3.9,13.1
				c3.3,0.7,56.7-7.7,74.3-7.3C198.8,118,200.8,107.8,179.3,106.5z"/>
		</g>
		<g>
			<path class="st6" d="M232,108c0,0-21-19.4-32.8-35.5C187.4,56.4,156-0.6,156-0.6s-31.4,57-43.2,73.1C101,88.6,80,108,80,108
				s35.7-6.2,76-6.2C196.3,101.8,232,108,232,108z"/>
			<path class="st7" d="M173,50.8c3.6-9.3-17.7-49.5-17.7-49.5S125.1,56,113.8,71.5c-5.8,7.9-13.9,16.6-20.4,23.2
				C150,88.5,168.3,62.9,173,50.8z"/>
			<g>
				<circle class="st8" cx="149.1" cy="25.6" r="1.8"/>
				<circle class="st8" cx="143.2" cy="36.5" r="4.6"/>
			</g>
		</g>
	</g>
	<path class="st13" d="M345.4,522.3c0,2.4-1.9,4.3-4.3,4.3H107.8c-2.4,0-4.3-1.9-4.3-4.3V415.4c0-2.4,1.9-4.3,4.3-4.3h233.2
		c2.4,0,4.3,1.9,4.3,4.3V522.3z"/>
	<path class="st14" d="M330.9,524.5c0,1.2-1,2.1-2.1,2.1H121.9c-1.2,0-2.2-1-2.2-2.1v-89.2c0-1.2,1-2.1,2.2-2.1h206.9
		c1.2,0,2.1,1,2.1,2.1V524.5z"/>
	<g>
		<g>
			<path class="st15" d="M146.8,475.8c0-18,14.6-32.5,32.5-32.5c2.5,0,5,0.3,7.3,0.9c-5.1-3.2-11.1-5.2-17.5-5.2
				c-18,0-32.5,14.6-32.5,32.5v55.1h10.2V475.8z"/>
			<path class="st16" d="M146.8,475.8v50.8h54.8v-55.1c0-11.5-6-21.6-15-27.4c-2.4-0.5-4.8-0.9-7.3-0.9
				C161.4,443.3,146.8,457.9,146.8,475.8z"/>
		</g>
		<g>
			<path class="st15" d="M257.5,475.8c0-18,14.6-32.5,32.5-32.5c2.5,0,5,0.3,7.3,0.9c-5.1-3.2-11.1-5.2-17.5-5.2
				c-18,0-32.5,14.6-32.5,32.5v55.1h10.2V475.8z"/>
			<path class="st16" d="M257.5,475.8v50.8h54.8v-55.1c0-11.5-6-21.6-15-27.4c-2.3-0.5-4.8-0.9-7.3-0.9
				C272.1,443.3,257.5,457.9,257.5,475.8z"/>
		</g>
	</g>
	<path class="st4" d="M426.6,405.7c0,1.2-1,2.2-2.1,2.2h-93c-1.2,0-2.1-1-2.1-2.2v-21c0-1.2,1-2.1,2.1-2.1h93c1.2,0,2.1,1,2.1,2.1
		V405.7z"/>
	<path class="st5" d="M418.6,397.1c0,1.2-1,2.1-2.2,2.1H353c-1.2,0-2.2-1-2.2-2.1v-10.8c0-1.2,1-2.2,2.2-2.2h63.4
		c1.2,0,2.2,1,2.2,2.2V397.1z"/>
	<polygon class="st13" points="224.5,192.2 103.5,272.4 103.5,385.3 196.5,385.3 252.4,385.3 345.4,385.3 345.4,272.4 	"/>
	<g>
		<path class="st14" d="M335.2,370.8c0,1.2-1,2.2-2.2,2.2H122.4c-1.2,0-2.1-1-2.1-2.2v-83.8c0-1.2,1-2.1,2.1-2.1h210.7
			c1.2,0,2.2,1,2.2,2.1V370.8z"/>
		<polygon class="st14" points="292.8,250.9 226.1,208.5 163.3,250.9 		"/>
	</g>
	<path class="st11" d="M241.2,240.8c0-10.4-7.5-18.9-16.7-18.9c-9.2,0-16.7,8.4-16.7,18.9v5.3h33.4V240.8z"/>
	<g>
		<g>
			<g>
				<path class="st17" d="M148.7,295c-13.8,0-25.1,9.3-26.4,21.1h52.8C173.8,304.3,162.4,295,148.7,295z"/>
				<path class="st18" d="M122.3,316.1c-0.1,0.8-0.1,1.6-0.1,2.4v46.9h53.1v-46.9c0-0.8,0-1.6-0.1-2.4H122.3z"/>
			</g>
			<g>
				<path class="st19" d="M176.4,322.4c0,1.2-1,2.2-2.1,2.2h-51.1c-1.2,0-2.1-1-2.1-2.2v-7.5c0-1.2,1-2.1,2.1-2.1h51.1
					c1.2,0,2.1,1,2.1,2.1V322.4z"/>
				<path class="st20" d="M168.3,318.6c0,1.2-1,2.2-2.2,2.2h-42.2c-1.2,0-2.2-1-2.2-2.2V317c0-1.2,1-2.1,2.2-2.1h42.2
					c1.2,0,2.2,1,2.2,2.1V318.6z"/>
			</g>
		</g>
		<g>
			<g>
				<path class="st17" d="M224.5,295c-13.8,0-25.1,9.3-26.4,21.1h52.8C249.5,304.3,238.2,295,224.5,295z"/>
				<path class="st18" d="M198.1,316.1c-0.1,0.8-0.1,1.6-0.1,2.4v46.9H251v-46.9c0-0.8-0.1-1.6-0.1-2.4H198.1z"/>
			</g>
			<g>
				<path class="st19" d="M252.1,322.4c0,1.2-1,2.2-2.2,2.2h-51.1c-1.2,0-2.1-1-2.1-2.2v-7.5c0-1.2,1-2.1,2.1-2.1H250
					c1.2,0,2.2,1,2.2,2.1V322.4z"/>
				<path class="st20" d="M244.1,318.6c0,1.2-1,2.2-2.1,2.2h-42.2c-1.2,0-2.1-1-2.1-2.2V317c0-1.2,1-2.1,2.1-2.1h42.2
					c1.2,0,2.1,1,2.1,2.1V318.6z"/>
			</g>
		</g>
		<g>
			<g>
				<path class="st17" d="M300.2,295c-13.7,0-25.1,9.3-26.4,21.1h52.8C325.3,304.3,314,295,300.2,295z"/>
				<path class="st18" d="M273.8,316.1c-0.1,0.8-0.1,1.6-0.1,2.4v46.9h53.1v-46.9c0-0.8-0.1-1.6-0.1-2.4H273.8z"/>
			</g>
			<g>
				<path class="st19" d="M327.9,322.4c0,1.2-1,2.2-2.2,2.2h-51.1c-1.2,0-2.2-1-2.2-2.2v-7.5c0-1.2,1-2.1,2.2-2.1h51.1
					c1.2,0,2.2,1,2.2,2.1V322.4z"/>
				<path class="st20" d="M319.8,318.6c0,1.2-1,2.2-2.1,2.2h-42.2c-1.2,0-2.2-1-2.2-2.2V317c0-1.2,1-2.1,2.2-2.1h42.2
					c1.2,0,2.1,1,2.1,2.1V318.6z"/>
			</g>
		</g>
	</g>
	<g>
		<rect x="114" y="254.7" class="st21" width="220.9" height="15"/>
		<path class="st22" d="M268.9,263.3c0,1.2-1,2.2-2.2,2.2H143.2c-1.2,0-2.1-1-2.1-2.2v-3.8c0-1.2,1-2.2,2.1-2.2h123.6
			c1.2,0,2.2,1,2.2,2.2V263.3z"/>
	</g>
	<path class="st23" d="M383,276.7l-150.3-97.1c-1.9-2.1-4.9-3.2-8.2-3c-3.3-0.2-6.3,0.8-8.2,3L66,276.7c-6.1,3.9-8.5,11-5.5,15.7
		l1.2,1.8c3.1,4.7,10.5,5.4,16.6,1.5l146.2-94.4l146.2,94.4c6.1,3.9,13.5,3.3,16.6-1.5l1.2-1.8C391.5,287.7,389,280.7,383,276.7z"/>
	<path class="st21" d="M353.5,419.1c0,2.4-1.9,4.3-4.3,4.3H99.8c-2.4,0-4.3-1.9-4.3-4.3v-39.2c0-2.4,1.9-4.3,4.3-4.3h249.4
		c2.4,0,4.3,1.9,4.3,4.3V419.1z"/>
	<path class="st22" d="M312.7,402c0,1.2-1,2.1-2.2,2.1H102c-1.2,0-2.1-1-2.1-2.1v-20.4c0-1.2,1-2.2,2.1-2.2h208.5
		c1.2,0,2.2,1,2.2,2.2V402z"/>
</g>
</svg>
